<mxfile host="app.diagrams.net" modified="2023-04-21T15:47:55.655Z" agent="Mozilla/5.0 (Windows NT 10.0; Win64; x64) AppleWebKit/537.36 (KHTML, like Gecko) Chrome/111.0.0.0 Safari/537.36" etag="5XLm4XpeGq_uXAsrRT0g" version="21.1.2" type="device">
  <diagram name="Page-1" id="jZ8osOmAaFP_7QJT97iN">
    <mxGraphModel dx="2085" dy="606" grid="1" gridSize="10" guides="1" tooltips="1" connect="1" arrows="1" fold="1" page="1" pageScale="1" pageWidth="850" pageHeight="1100" math="1" shadow="0">
      <root>
        <mxCell id="0" />
        <mxCell id="1" parent="0" />
        <mxCell id="9EUehRZK9THw3qdOtHzu-20" value="" style="shape=image;verticalLabelPosition=bottom;labelBackgroundColor=default;verticalAlign=top;aspect=fixed;imageAspect=0;image=data:image/png,iVBORw0KGgoAAAANSUhEUgAABOAAAAM2CAYAAABfe/zMAAAAAXNSR0IArs4c6QAAAARnQU1BAACxjwv8YQUAAAAJcEhZcwAAEnQAABJ0Ad5mH3gAAIPJSURBVHhe7d0JuFx1YT7+E0AMiOxLWANKq1WruNQVjWhRVBRRVLTUQNXWqlXrz7VaIXVfWpda/6JoSBVFcUdZFMWI+1L3fcGwBsIuYECWv+/xfHW43CR3mbn3nDOfz/PcZyZHE+Bm7pl33u+24MY/qAAAAACAkdioeQQAAAAARkABBwAAAAAjpIADAAAAgBFSwAEAAADACCngAAAAAGCEFHAAAAAAMEIKOAAAAAAYIQUcAAAAAIyQAg4AAAAARkgBBwAAAAAjpIADAAAAgBFSwAEAAADACCngAAAAAGCEFHAAAAAAMEIKOAAAAAAYoc4VcL/5zW+aZwAAAADQfp0r4FasWNE8AwCA2Vm2bFnzDABgdBbc+AfN807Ya6+9quXLl1cPfOADmysAADAzCxYsqE4//XTZEgAYqU7NgDv22GPrJagrV65srgAAwMwkW4ZsCQCMWicPYTjllFOaZwAAMDOleJMtAYBR69QS1Pvc5z7V1772tfp5x1bOAgDQMrvvvnt1zjnnVIsWLarOP//85ioAwPB1agZcKd/iC1/4QvMMAACmL+VbrF69WrYEAEaqMwVc2aOjeMlLXtI8AwCA6ZmYLe0DBwCMUmcKuImhqIxYAgDAdH36059unv3RMccc0zwDABi+zuwBV/boGOTIeAAAZmLBggXNsz+TLQGAUenEDLgsEZhYvi1cuNBSAQAApm3i8tNCtgQARqVThzAMWrt2rSPjAQCYtnUVbbIlADAqnViCep/73OcmJ6AO6sgKWgAAWmKyrU1i0aJF1fnnn9/8CgBgeDoxA25d5Vs4Mh4AgOlY12Feq1evli0BgJFofQG3rj06ipe85CXNMwAAWL/1Zcutt97aPnAAwEi0voDbUAha1wgmAABM9OlPf7p5dnOXXXZZdcwxxzS/AgAYntbvAbeuPToGOTIeAICpWLBgQfPszzLzLeVbIVsCAMPW6hlwWSIwWL6VIDQYiBYuXGipAAAAGzRx+WnJlPvss09dwhWyJQAwbJ04hCESkDIaGUceeWR11FFH1c/Xrl3ryHgAADZosFhLtly+fHn9PNnyuc997p9KONkSABi2VhdwRx99dP04WL4VgyXc+k5JBbrl5JNPrn75y182vwKA4TnttNPqx3Vly5Rw8Zvf/KZ+hHGQ3JX8BcBotbqAS7E2WUAqBks4R8ZD911//fXVgx70oGqvvfZqrgDA8GRrk6lky9WrV8uWjI3kruQvAEartQVc9uhYX0AqSlBatmxZcwXoqo033vhPXwAwTNPNlvaBY1zkTD7ZC2D0Wj0DbkMBqUhQWrp0afMroKuy5OcWt7iFQh2AkZhOtly8eHHzK+i3973vfXX+svQaYLQW3Jghjw7J0fEJTxnBBPrliiuuqFasWFHd8573rO51r3s1VwFgNFI4ZPmdbMk4+8lPflLvj5gJDVtuuWVzFYBhU8ABADCWFHAAwFxp9RJUYLzkg1BKdktQAQDmRvZHTP6yBBVgtBRwQGtk2cOzn/1sy08BAObIHe5whzp/WX4KMFqWoAIAMJYsQQUA5ooZcEBrnHvuudXee+9dvfWtb22uAAAwSh/96Efr/JUcBsDoKOCA1thkk02q293udtV2223XXAEAYJSy9DT5KzkMgNGxBBUAgLFkCSoAMFfMgANa44ILLqgOOOCA6n3ve19zBQCAUfrsZz9b56/kMABGRwEHtMZ1111Xz0a47LLLmisAAIzSlVdeWeev5DAARkcBB7TGrrvuWv30pz+tnvWsZzVXAAAYpYMPPrjOX8lhAIyOAg5ojYsvvrgu30466aTmCgAAo/S1r32tzl/JYQCMjgIOaI3f/va31Tve8Y7qW9/6VnMFAIBR+tnPflbnr+QwAEZHAQe0xp577lnvP/Lyl7+8uQIAwCgtXbq0zl/JYQCMjgIOaI0rrriietOb3lQvhQAAYPR+/OMf1/krOQyA0VHAAa1xySWXVM973vOqU089tbkCAMAofeMb36jzV3IYAKOjgANaY7fddqt+/etfV895znOaKwAAjNIhhxxS56/kMABGRwEHtMa1115b/fCHP6wuuOCC5goAAKN06aWX1vkrOQyA0VHAAa1x4YUXVo961KOq448/vrkCAMAofe5zn6vzV3IYAKOjgANaY9GiRdVnP/vZ6u///u+bKwAAjNJDH/rQOn8lhwEwOgo4oDU23njjatddd61ufetbN1cAABilzTffvM5fyWEAjM6CG/+ged4JCxYsqE4//fTqgQ98YHMF6KLf/OY31YoVK+rnX/jCF27yuOeee/7psXwtWbLEzz0AQ5X3or322ku2pFOSl1auXFkde+yx9Wt4Yl6KPJ/qazp/zhFHHFGdeeaZ9e8DYDQUcMCcKaVbHhP2ogS9EhzXrFlT/f73v//TRsD5/+Yr8r8ffvjhyjgAhiLvLwo4uqBkqKOOOqq58ueSrWSlkpeK8r8vXbp0va/vn/3sZ/XPwN/93d9ZhQAwQgo4YE4sW7bsT6FxXUVabkcp37IEYnAZRAmdGfEts+Ty+4888sj6zwKAmcj7iwKONisZaDBDJf8kB02mFHH5KrPkYn1l3A033FBdd9111S1ucYv6sxYAo6GAA0YqAXC//farH6cSGvNBKCEz/7/J5P9Tgmgp8tb1/wWA9SnvO7IlbZRBx2SoSO5JeTbdgce8xvPnlIHMmJifLEEFmBsOYQBGJmEuH2wiwTHBbl3lW2y11VbV85///Oq+971vc+XmSolXQmL+3PwzyggvAEDXZeVAyrdknRTEyT4zKcfye5K98mckO5UBzJKf8s+5053uVOev5DAARscMOGDoMtqa8i0jrQl4o5yhln9G/llhNhwA02EGHG2U4i35Jq/JvDZHoeSn/AykkFu+fLmfAYARMwMOGKoEunyYyWMZsZ2qc845p1q8eHH1pje9qbmyYSWc5jFlX0ZyAQC6qJRvyTSjKt+i5Kf8c1LC5Z9bCjkARkMBBwzNxOUS0x1J3XTTTau73e1u1c4779xcmZr881L0JUTmKwWgAAkAdEkp3zIbbS5m9Jf8dOKJJ1a3v/3t6+088u9gMBNgNBRwwFBk1DTlV0q37DEy3fItdtxxx+pjH/tYdeihhzZXpm6whCsjuUo4AKALBsu39e2XOwoHHnhg9ZOf/ORP+c1gJsBoKOCAWctIaUZNy3KGmVq9enX1oAc9qD6pa6ZSwiVAKuEAgC6Yz/ItTj311Dp/LVy4sP53GBzMNBsOYHgUcMCspHgrM99mu1fJDTfcUK1Zs6a66qqrmiszUzYTLuERAKCNUrzlK8XbfJRvsXbt2jp/JYdFGcyMZDwlHMBwOAUVmLGUb1l6OozybRTKv18KuRIkAaDIQI1TUJkv5fXX1hyVf7+sSkgJlyyVf8c8AjAzZsABM5LR2mGXbxdffHH1j//4j/VmwMOQkeQyEy4BFwCgLZKjYi4OXFifr3zlK3X+Sg4bVPbXTc4rqwrMhgOYOQUcMG0p3xLChj1ie+WVV1bve9/7qu9///vNldlLCVf2MilBFwBgPpV935Kj5nv25a9//es6fyWHTSb/fpakAsyeJajAtJWTsRLGurIUIWExoTFf8z3SDEA7lBnSsiVzqQxklpn6XZGfl8Elqbb3AJgeM+CAaUlgTADLh5Vhl2+XX3559frXv7768pe/3FwZnqVLl9YfrrIvXIIvAMB8KDPI2lK+/fCHP6zzV3LY+pQlqWVlQRmQBWBqFHDAlCUwprxK8BrFTIFLL720etGLXlSddtppzZXhSWgsQTdLUQVGAGCulYHANs18+9a3vlXnr+SwqUgJV/bYLQOzAGyYJajAlJTlEvnZy8/gKFx//fXV6tWrq1vf+tbVlltu2Vwdrrn47wCgG8osHtmSuZLPMm3LIFdffXVdvi1atKjaeOONm6sbVn5+MsiZ/55hr4wA6Bsz4IANKiOcJWCNyjXXXFN97Wtfq84999zmyvAl9GYGX4o4mwgDAHOlLaeeTrRmzZo6fyWHTUdyYdkHLjlRrgJYPwUcsEElMI56ucSFF15YHXLIIdWHPvSh5spoJPhm42P7wQEAcyF5I7kj+aNtsy0zuJr8lRw2XYODs/nvU8IBrJsCDlivUlKNat+3QVn6kH9WDkwYtTL6XMpFAIBRKcVU22a/xQEHHFDnr+SwmRgs4ZIXlXAAk1PAAeuUpacpqFK8zUVg3Gijjaqtt966WrhwYXNldBIW899U/hsBAEYh5Va+Mvst+aNtNt100zp/JYfNVCnhylYfSjiAm1PAAes013uVnHfeedU+++xTHX300c2V0UoQzlcJxgAAw9bm2W/xyU9+ss5fyWGzkRIu25Uo4QAmp4ADJpXQlFJqLpaeFttvv3317ne/u3rUox7VXBm9EobNggMAhq3ts9/ifve7X52/ksNmSwkHsG4KOOBmsiyzFG9zOVp7q1vdqnrCE55Q3fGOd2yujF6CoqWoAMAorFixon5s6+y32Guvver8lRw2DEo4gMkp4ICbKUXUqE89nWjVqlXVFltsUb3mNa9prsyNshTVqagAwLBkcK+cfNrW2W/xvve9r85fyWHDooQDuDkFHHATpYRKaJrrsLjVVltVL3nJS6p99923uTJ3MjKd/16z4ACAYSilU5tnv8Wd73znOn8lhw2TEg7gphbc+AfN805YsGDBn07YAYYvP2P5+SrHyY+TlI8p4BIS2x6WAZi9zFDK8jvZklFIpsrst7leUdA2ZZuPsrewjAWMKzPggD8ps7/mKxidffbZ1c4771y98Y1vbK7MrYTkfABLEZewCAAwE8kSsXTp0vqxzT74wQ/W+Ss5bBQGZ8Ll+2ImHDCuFHBALaOSCUWlhJoPCxcurO5///tXixcvbq7MvQTElG/CIQAwU8kRyVNdmFm5aNGiOn8lh41KKeHymLxpz11gHCnggFob9inZYYcdqg996EPV4x73uObK3EswdCADADBTyRAZzOvC7LdYsmRJnb+Sw0aplHBRlqQCjBMFHPCnsqmMTM6X1atX1yOw73nPe5or8yMlZL4PDmQAAKZr5cqV9WMG9Lrg5JNPrvNXctioJV+VfYaTs2z5AYwTBRxQB6AskZjvoHjDDTdUV199dXXdddc1V+ZHwmFKOEtRAYDpKlt6dEVyV/JXcthcKCVcctZ+++2nhAPGhgIOxtx8H7wwaJdddqm+/e1vV//4j//YXJk/Zd+WsowEAGBDysBdV5afxiMf+cg6fyWHzZWUcGeeeaYSDhgrCjgYY204eGHQRRddVBeCH//4x5sr8yfB0IEMAMB0JFeVQbyu+NKXvlTnr+SwuTSYtVLCAfSdAg7GWBsOXhiU5Q8f/ehHq5/85CfNlfmVYJhyMkWljYIBgPUps+a7NPstzjrrrDp/JYfNteSsUsKVVRkAfaWAgzFVSqWjjjqqLpraYI899qguv/zy6iUveUlzZf7ZCw4AmIquHb5QPOlJT6rzV3LYfMj3K3k0BaYSDugzBRyMqbbNfovLLruseuUrX1l98YtfbK7Mv5STCYVmwQEA61O29eia733ve3X+Sg6bL8mjpYQz6An0lQIOxlDCTcqkTPlvkwS/f//3f//T8fRtUZaSGJUFACaTbBVLliypH7vkO9/5Tp2/5rOAi1LC5UsJB/SRAg7GUEJN2d+sTXbffffqwgsvrF7wghc0V9phcJNgs+AAgIm6uvw0Dj300Dp/JYfNtwx6llPoS6kJ0BcKOBgzCTMpktq09LRYu3Zt9bnPfa769a9/3Vxpj4TBFHFmwQEAEyVfdbF8i/PPP7/OX8lh860MekYGjA18An2igIMxkzCTMqmNIXHNmjXVE5/4xOojH/lIc6U9EgjLgQxGZAGAouSCrp1+WmT2XvJXclgbJHOV7Ugy8JnsBdAHCjgYIynf2jr7LXbeeefqK1/5SvUP//APzZV2SXGZL/uSAADFihUr6sdkhC56xCMeUeev5LC2KCVccut+++3XXAXoNgUcjJFsaltKpLbaZJNNqo033rj5VbsMzoKzFBUAiCyT7Ory01iwYEGdv9qmLEdN7tprr72aqwDdpYCDMVEKo7bOfovsQXLPe96zete73tVcaZ9SYCZsWxIBAOOt68tP41Of+lSdv5LD2ibFZgaQDX4CfaCAgzFRNgdu8+y37bffvvrf//3f6tGPfnRzpZ3KLDhLUQFgvHV9+Wnc//73r/NXclgbJXelhEuWlb2ALlPAwRgoI4ZtH53dfPPNqwMPPLC63e1u11xpJ7PgAIDo+vLT2H333ev8lRzWVsmwZTacEg7oKgUc9FwKoi7Mfouzzjqr2nbbbavXve51zZX2MgsOAMZbH5afxvvf//46fyWHtVXZhzdZNt/3FJ8AXaOAg54rBVEXwuHWW29dh6slS5Y0V9rLLDgAGG8rV66sH9s+wLkh++yzT52/ksParBzKEFndIX8BXbPgxj9onndCTunJkdRdf6ODuZBgklOjMvutBBaGx/cXoNvKfVy2ZCbyuUQGmHvl5zaFXH528wjQBWbAQY91afZbnH322fUGwK9//eubK+2WwGcWHACMn7L8tAuz9jfk+OOPr/NXclgXlJlwyV777bdfcxWg/RRw0FMJJV3Z+61YuHBhdcABB1R77713c6X9SgC0FxwAjI++LD+NXXbZpc5fyWFdkXybAxmSwcphYwBtZwkq9FTCSAq4M88809T8EcvoawKgZRAA3ZJ7tyWozEReN3nNWH46vzIAmiIuX9nHDqDNzICDHhqc/dalQuj888+v7nWve1XHHHNMc6UbzIIDgPGRjJX3/T4sP41Pf/rTdf5KDuuabLOSIjQFnBwGtJ0CDnqoBJAujgRmlmvX2AsOAMbHqlWr6sc+zZrsYv6Ksh9c/i5SjCaLAbSVJajQM2U5jVO55pbvO0D3lHu3bMl05DWT107HPkb1Wv4+yoEMtgQB2soMOOiZLs9+W7NmTfV3f/d31Uc+8pHmSncMzoIDAPorZU8G3Prii1/8Yp2/ksO6KjksxdtgEQfQNgo46Jku7v1WrF27tvrMZz5T/epXv2qudEtKzwQ/p3EBQD8lZ0X2HuuL8847r85fyWFdVpajKuGAtlLAQY+U4qeroXD33XevR19f+MIXNle6JTPgzIIDgP5auXJl/dinJcuHHnponb+Sw7oug9A5kCFZzIAo0DYKOOiRMvutq6Hwsssuq2eRdbnAKrPgygg5ANAfySh9Wn4a3/3ud+v8khzWB/lvSQmXLOZkVKBNFHDQEyVgdHlJRILff/zHf/xpdLmLyiw4gQ8A+ieDbEuWLGl+1Q8p4JK/+lLARfJw8lhKOIOiQFso4KAnEi5K+dNVe+yxR3XppZdWL3rRi5or3WQWHAD0T3lf73LWmsyTnvSkOn8lh/VF2Q8uMihqexCgDRRw0AMJhCl8Uvx02dVXX1198pOfrH72s581V7qpnIhqFhwA9EeZod/Fg67W5+yzz67zV3JYn+TvKSejRvaDS1YGmE8KOOiBFD1dn/0WF110Ub1k4OMf/3hzpZsS+PLfYRYcAPRH3tP7tv9bnHHGGXVuSQ7rm1LCJZM5GRWYbwo46Lgy+63Le78Vu+yyS/XNb36zetrTntZc6a6UoQl9ZsEBQPeVAbW+7f8Wj3zkI+v8lRzWR8ljWY6avOxkVGA+KeCg41LwJFj0YUT2xhtvrK699trq+uuvb650V/5Oyl5w9h0BgG5btWpV/di3/d8iuSv5Kzmsr5KTnYwKzDcFHHRYmf3W9b3fivPPP7+63/3uV73nPe9prnRbCemCHgB0WxlMywBb35x00kl1/koO67Pk5ZRw+ZLNgPmggIMOW7FiRf3Yl/1Idthhh+r444+vDjnkkOZKt5UlDwntZsEBQHflfbyP+79FltUmfyWH9V22bMkAaQaxZTNgringoKNKcChHrPfBwoUL6w1y+zS6bBYcAHRbn/d/i5133rnOX8lhfVcGRyP7wSnhgLmkgIOO6tvst8gx+DvttFP1xje+sbnSfQl6+TtKwBPyAKB7Vq5cWT/2cf+3yOy35K/ksHGQbJaTUSMlXLZzAZgLCjjooFLm9G0pxDbbbFO98pWv7N0x8WWPvlKaAgDdkcyV8q1PM/QH3e1ud6vzV3LYuCglXMq3vuVOoL0UcNBBpcjpy+ELxVZbbVW99KUvrR7wgAc0V/phcBacUVYA6Ja8d/e1fIs73/nOdf5KDhsn+TvNclQlHDBXFHDQQdmLJIVO38LgWWedVW255ZbVa17zmuZKf6QsTcCzFxwAdEff93+L4447rs5fyWHjJnk6p6JmkDTLUQFGSQEHHVPCQU5x6pvNN9+8PgH1Dne4Q3OlP1KWZvlKAh4A0A2rVq2qH/u6/1skoyR/JYeNowySpoRL2WqgFBglBRx0TJn91scguP3221fvec97qoMOOqi50i9lFlwZTQcA2q0MnPV5Cer97ne/On8lh42rDGyX2XBKOGBUFHDQIaW46ePstzjvvPPqjYCPPvro5kq/pDTNl2AHAN2QAi7FTJ+deOKJdf5KDhtXKVgzUJqclrxtxQIwCgo46JAUN6XE6aONNtqo2mKLLapNN920udI/KU8zC06wA4B2KwOffd7/LTbZZJM6fyWHjbOUcDmUIbLlS/IawDAp4KAjEgITBPo6+y0WLVpUffGLX+z1JrgpTxPwbPQLAN3Q14HP4mEPe1idv5LDxl0y2umnn15n7pyMqoQDhkkBBx2xYsWK+rHPyyDWrFlTPe5xj6tOOOGE5kr/lCUOZsEBQLutXLmyfsx7d58ljyR/JYfxx7/vM888808lHMCwKOCgAxKM8lWmxffV2rVrqy9/+cu9Pwa/jKTbCw4A2ivZq+/7v8WFF15Y56/kMP4oJVxytxIOGCYFHHRAKWr6HgJ33333egPg//f//l9zpZ8S6vJ3WYpVAKBd8v6c8qXv+7/F4x//+Dp/JYfxZ8lqORU1rwVbhwDDoICDlislzTiMwF566aXVS17ykuq0005rrvRXlqFGWVoMALRH2fur7/u/xbe//e06fyWHcVPJaynhshezlQvAbCngoOVKQVMKmz67/PLLq9e+9rX1Moi+yyy4hPoywg4AtMe47P8WP/jBD+r8lRzGzZUSLl9KOGA2FHDQchlxy+y3cQiAixcvrq666qrq3/7t35or/VYOYxDmAKBdxmX1QRx22GF1/koOY3JLly6tB06VcMBsKOCgxcobfN70x0HC3wc+8IHqhz/8YXOl3xLkyiw4AKA9MkA2DoOfkRM/k7+Sw5hcXgs5lCG5zXJUYKYUcNBieYMvJc04uOiii6qnPvWp1Sc/+cnmSv+VWXD5uwYA5l95Tx6XGWHZ+iP5KzmMdSslXOQ1YgAVmC4FHLRU3thTzIzL7LfYZZddqu9973vV05/+9OZK/yXMpWA1kgoA7VD2fxuXAdCDDjqozl/JYaxfctvpp59eP8/JqPbxBaZDAQctVQ5fGJf9R+KGG26oLrnkkup3v/tdc6X/EuRSsibAGUkFgPlXSpW8R4+Da665ps5fyWFs2GAJt99++ynhgClTwEELpYjJV5nmPi5Wr15dB5lSPo6LMsJuFhwAzL9ksHEaAD3llFPq/JUcxtSUEi7lmxIOmCoFHLRQKWLGKfzFjjvuWH3kIx+pHv/4xzdXxkNCXP6uzYIDgPlV3oeXLFlSP46DFEjJX8lhTF3yWwbLSwkHsCEKOGihcRt5LTbddNPqnve8Z7Xrrrs2V8ZHOYxh3Gb/AUCblJlM47L/W2y//fZ1/koOY3qS10sJt9deezVXASangIOWyYaukUJm3JxzzjnV7rvvXr3pTW9qroyPjKIm7JsBBwDzpxzAkPflcXHCCSfU+Ss5jOlLCXfUUUfVJVzJ8QCTUcBBy+T007yRj1PwK7bZZpvq9a9/fbX//vs3V8ZLmQWX1wAAMPfGcRXCPe5xjzp/JYcxM8lwKeGS4ZRwwLoo4KBFSvGSUzHH0VZbbVW94AUvqO573/s2V8ZLZsDly2EMADA/yhLUcXKnO92pzl/JYcycEg7YEAUctEiKl7IUcRytWrWq2myzzapXvvKVzZXxk/I14d9SVACYW2UgdJwOYIj3vve9df5KDmN2Bks4A6rARAo4aIm8Uad4Gce934otttiievKTn1zts88+zZXxU8pXoQ0A5se4DYTuvffedf5KDmP2SgmXL3kOGKSAg5Yop1+O4+mnxXbbbVcdffTR1YEHHthcGT+ZAZnAlhlwZsEBwNwZxwMY4j73uU+dv5LDGA4lHDAZBRy0QClbxrl8i/POO6/eh+Ttb397c2U8lT0ASykLAIzeuGaxT3ziE3X+Sg5jeJLnlHDAIAUctEApWsZ5+WlstNFG1U477VTd6la3aq6Mp7IPoBlwADB3shXIOJ5Cv3Dhwjp/JYcxPHktKeGAQe6y0ALZ/y0jruMY+gYtWrSo+tznPje2p8AOShmbDwLCGgCMXjmAYfHixfXjOHnoQx9a56/kMIZLCQcMUsDBPCtvxEqnqrrwwgurRz/60dXxxx/fXBlfmQGXr/KBAAAYnbL/27gdwBCf//zn6/yVHMbwlRIury0lHIw3BRzMsxQspWwZd9dee2313e9+t1q9enVzZbyVWXBKOAAYrWz7kCw2jqsRLrnkkjp/JYcxGnldLV++XAkHY04BB/MoxUoKlnHf+63Ybbfd6u/Hc5/73ObKeEtYS1AT0gBgtMZ1/7c45JBD6v/+5DBGRwkHKOBgHuWNt5Qs/HEE9vnPf371mc98prky3vLayJKFhGIHMgDAaJSZ5kuWLKkfx803v/nNOn8lhzFaSjgYbwo4mCdmv93cFVdcUf3nf/5n9dWvfrW5QgJawpqABgCjMc77v8WPfvSjOn8lhzF6SjgYXwtu/IPmeScsWLCgOv30080YovP222+/elZTx34ERyrfi+uuu67aeOONHYU/IGXtEUcc4d4HMGQZCNtrr73cX8dcXgMpRfI6GEc33HBDdf3111ebbLJJ/VmLuZH7z4oVK+oSLl8G5aH/fMKFeZDiLV95s+XPrrzyyuqYY46pvv3tbzdXiPKh0AgpAAxfipAUcOPqF7/4RZ2/ksOYO3nNZauRUsDJedB/CjiYB+UN1kjXTV188cXVM57xjOqkk05qrhAJaIcffvifilsAYDjGff+3yNYfyV/JYcytiSVcVjwA/aWAgzlWSpQUKtzUrrvuWv3kJz+pnvnMZzZXKEpZm6UKAMBwjPv+b3HwwQfX+Ss5jLmXEi45LwVc2XYE6CcFHMyxUqCY/XZz2f/t7LPPtgnwJBLO8uEg5W2WygAAs5f31by/5n12XF111VV1/koOY/4MlnDZlxDoHwUczLG8qWb22zgHvXW54IILqoc85CHVe9/73uYKg3JiVso3e4QAwHCM+/5v8ZnPfKbOX8lhzK9SwuV1qYSD/lHAwRwqU8qz1wM3t+OOO1Ynnnhi9cQnPrG5wqDBWXAAwOzY/+2PHvzgB9f5KzmM+TexhLPyAfpDAQdzqMx+G+d9RtZn0003re5whztUO+ywQ3OFiRLKzIIDgNmz/9sfbb311nX+Sg6jHZL3ysqH/fbbTwkHPaGAgzlSChOz39btnHPOqW5729tWb33rW5srTJQPCfkqo/YAwMzY/+2PPvKRj9T5KzmM9sigvRIO+kUBB3MkU8lLecLktt122+pNb3pT9dCHPrS5wmTKLDglHADMXN5L7clbVfe85z3r/JUcRrukhDvzzDOVcNATCjiYA2X2W4oT1m3LLbesnvvc51b3vve9mytMphS5lqECwMzY/+3Psvw0+Ss5jPZJSZwSLlLCyX/QXQo4mANmv01NRvU23nhjwWIKyiy4crAHADB19n/7sxUrVtT5y+yq9koJd/rpp9fP87lCVoZuUsDBiJWCxOy3DcvI6zOe8Yx6KQTrVwrd7F8jMAPA9OT9M8v7LEGtqtvf/vZ1/jIDrt1KCZcCTgkH3aSAgxFKMeLk06nL3iP//d//XT3sYQ9rrrA+ZWNeAQwApi7ZLO+flp/+0b3uda86f9kDrv1SwuVAt1LC7bXXXgZioUMUcDBCZr9Nz7nnnlvd7na3q972trc1V1ifhLAyCy5fAMCGleWnGSClqj72sY/V+Ss5jPZL/stnixRwKd8czgDdoYCDESmliOUNU7fJJptUt7nNbaqtt966ucKGlFlw2b8FANiwsjqBP9piiy3q/JUcRnekhMuS1FLCOR0f2k8BByNSlgWa/TZ1O+20U3XyySdXhx12WHOFDUm5mw8RZsEBwIaVkiLL+Pij/fffv85fyWF0S1ZClBNS89nDtiTQbgo4GIFShmRquNlvU3fBBRdUD3/4w6vjjjuuucJUpOTN6KfQBQDrV2aM25v3z0477bQ6fyWH0T35rJGZcHl0OAO0mwIORsDst5m57rrrql/84hfVxRdf3FxhKsyCA4Cpyfuk5ac3dcUVV9T5KzmMbkoWzLYk5XCGsg810C4KOBiyLG0os9+Ynl133bUOgM9+9rObK0xVKXuNegLA5Cw/ndxjHvOYOn8lh9FdKeGSB/MZJK91J6RC+yjgYMjK0gaz36bvkksuqcu37EPC9JSRT7PgAGBylp9O7utf/3qdv5LD6L5SwpXDGQzOQnso4GCIyuy3FCFMX5ZAvO1tb6u+8Y1vNFeYjnygSBFn2QEA3Jzlp5P76U9/Wuev5DD6ISVcOZwhZZwSDtpBAQdDlOIjJYhwNzMpj2644QazB2eoLD1wIAMA3FRZfipj3FyW5CZ/JUfQH/n7zOEMKeDyZUkqzD8FHAxJpniHYDdzGXl961vfWi+FYGZS/qYEzgcNIQsA/igDU2WmODf1k5/8pM5fZsD1TxmctSQV2kEBB0NQ9t0q5Qczk71HnvOc51SnnHJKc4WZyBLohCxLUQHgjzkt74sOX5hcBj6Tv+wB118p4SxJhfmngIMhKG9i9n6bnd1226365S9/6RTUWcpoZ8JVKYYBYJw5fGH9HvvYx9b5KzmM/rIkFeafAg5mKeVbSo68oTE7v//97+uNgNesWdNcYaYyyp+gZRYcAOOurFKw/HRyl19+eZ2/ksPoN0tSYX4p4GAW8saVN7CMqBpVnb0LLrigOvDAA6sPfOADzRVmKgHLUlQAxl3ZE9Xy03U77bTT6vyVHMZ4sCQV5ocCDmahFBsOXhiOnXbaqTr11FOrww47rLnCbJRi2FJUAMZVigUDpev3kIc8pM5fyWGMD0tSYe4p4GCGMqKaUqPMgGP2Ntlkk2rx4sXV1ltv3VxhtsyCA2Bcmf02Nbe61a3q/JUcxngpS1JLXrQkFUZLAQczlDen8qbFcJx77rnV7W9/++ptb3tbc4XZGlyKmg8iADAuyuEL2f+NdfvYxz5W56/kMMZTfkayJDW50Ww4GB0FHMxAZhPlTcmpp8O13XbbVf/zP/9TPfzhD2+uMAxl6U1KY2EKgHFQVirIaht273vfu85fyWGMrzJomwLObDgYjQU3/kHzvBMWLFhQr1W35I/5kjCXN6SMFAl1w3fddddVG220Uf3F8CRIZTTT6xbgz8q9Ubbsn2S1ZLaOfdSZF/keXX/99Zag8ie5N2YGacq4suLHTFKYPZ9wYZrKSJClp8OXN/tb3OIW1Ste8YrmCsOS8JTgVGYEAEBf5X0uXykP2LAULclfyWEQpXQrg7ZZ/VNWAAEzp4CDaSijqRkpzxsTw7XllltW//qv/1ovhWD4EqTyuhWgAOizsvebwxem5o53vGOdv5LDYFAGb8tJqRnEtSwVZscSVJiiFG9508lrL69B6KIUb1lu5XUMYAlqH5W/U1suwHDlZyufhfKYAd3cN01IgOkxAw6moLzhlDcbRuOcc86pQ/Ob3/zm5grDltdwPpCkUDaCCUDf2Cpk+j784Q/X+Ss5DNalfA5ySAPMnAIOpiBL9sJI6mhtuumm1Z3vfOdq0aJFzRVGIbMCMtPDfnAA9E3e2/I+Z2bO1G277bZ1/koOg/XJz1XK7TPPPLN+njIu5a08CVOjgIMNyMhO3lTyBmN5ymjtuOOO1Sc+8Ynq0EMPba4wKoOb6gJAH5TZOPZ+m54HPehBdf5KDoOpGJwNF5kNZ49h2DAFHKzHYPFmKcPoXXDBBdX+++9fvfe9722uMCoJTinhEpSUcAD0QclsBkyn5zOf+Uydv5LDYDry+agUceWQBkUcrJsCDtYjbyBlhIfRu+6666rzzjuv+u1vf9tcYZTyAaUEJnt4ANBlZTDJgOn0XX311XX+Sg6D6Rpclprl34OnpSri4KacggrrkDeOzIDzeqPPygy4PGZGnNc6ME5y73MKavclryW3OfkU5l/uqynfUsSlnMvPZZaF5zmMOzPgYBJ5w7Dv29y7+OKLq6c//enVpz71qeYKo2YpKgBdV2Zxm/02M1/96lfr/JUcBrNVsmVmxOVzVD5PlRlxMO4UcDBBircUEXnDEOTm1pVXXlm/YX/nO99prjAXlHAAdFUZNM37mBk2M/PLX/6y/v4lh8GwDBZxeZ4iLjOOFXGMM0tQYUAKiIzQ5LG8WcC4SCBKOMqX8hkYB3m/twS12/L3F8ltQHuVgd4U5vmMlaWp8ibjxgw4GFD2wkoQV77NvSuuuKJ64xvfWH3lK19prjCXsj9HPoBmNkG+AKDNSm7LLBtm7kc/+lGdv5LDYFTy2SqfscrnLDPiGEcKOGg4dGH+XXLJJdULXvCC6rOf/WxzhbmUMFQ+xCQM5ecBANooxVsGizKLRm6bnW9+85t1/koOg1HLz2s+b5Vl44o4xokCDv6gTIfOG4AQN39222236qyzzqqe+9znNleYa2V0MsrMAgBom7xHhSVss/e4xz2uzl/JYTBXUp6vq4iTP+krBRxjLzf5jKCmeBPi5te1115bffvb367OP//85grzoZRwCT+ZGQoAbZJB0zJwmvcsZiennyZ/JYfBXCtF3MRTU8sECegTBRxjbXDWW5n1w/y58MILq4MPPrj64Ac/2FxhvuQDTUYkU8KVDa4BoA3ywTzvUwZOh+Pzn/98nb+Sw2C+lOyZIi6lXCZIpIhLDlXE0RcKOMZWbuS5qZfZPsy/RYsW1SEwhwEw/xJ+UlCnhCtLfQBgPpXlaWXPUmbvgAMOqPNXchjMt1Kup4grObQUcQ4Jo+sUcIylciNXvrXLRhttVG2//fbVZptt1lxhviUAJfwk8NgcF4D5lPxWVi7Ys3d4bnnLW9b5KzkM2mJiERcZEHZgA13mLsvYGZzNUzb9pB3OO++86s53vnP1jne8o7lCG2RGYpkNJ/AAMF9KfrP0dLg+8YlP1PkrOQzaphRxmTThwAa6TgHH2El4y/LT3MSNnrbLdtttV73zne+sHvnIRzZXaIMSfPLzkplw9uEAYK5l5YL8Nhr3ve996/yVHAZtlTw62cmpuTfk850iji5QwDFWhLd222KLLarDDjus+uu//uvmCm2RkFP220nIMRMOgLmS7JavfPiW34bvtre9bZ2/ksOgC0oRV05OzQBxZsSViRbQVgo4xkLZ8y035JQIwls7rVq1qtp8882rV7/61c0V2iQlXMJO2BMOgLlQMtzgQBDD9d73vrfOX8lh0CXlvlD2iUs+zf3CgQ20lQKO3it7vpWZbxkxoZ222mqr6kUvelF1v/vdr7lC2yjhAJhLyXChfBudrDxI/koOgy5KPnVgA12w4MY/aJ53woIFCywfZMomlm9eNzAcgz9bCTo2xAa6KPeyfECTEdopH5zzHuPvB5iO3NuTUXMPyfMUdJmEIa8y38yAo7dKqFa+dcc555xT7bbbbtV//dd/NVdoqzLlPz9X+XBkdBGAYSoDPHmfkeFG64QTTqjzV3IY9EEp3PIZMHk1v879pMyIy+dEmA8KOHqplG+hfOuOTTfdtLr3ve9dh0Dar5RwCTRKOACGJTmu7PuWHMdobb/99nX+Sg6DPhks4sqBDcmsub+UlRwwlxRw9E5upCnfSmhTvnXHjjvuWH34wx+uHv/4xzdXaLv8nC1dulQJB8DQ2PdtbqWMSP5KDoO+KgPHKeJSyg0e2KCIY64o4OiV3DzLiGlZHkd3rF69ulqyZIlTizpmYglXPjgBwHRlIGdw+Smjd8opp9T5KzkM+i65dfDAhjLjtixPhVFSwNEbyrfuu+GGG6orrriiWrt2bXOFrihhJkEmBaoSDoDpGizebJY+d6699to6fyWHwbiYWMRFHhVxjJJTUOmF3CRzw8yNNDdRYP4M/jzmfp1HgDYqe8bKlvOvDKTm7yF/HwBzKe8HuQ+tWLGifkx+zf0oqzy8PzAsZsDRaWXKcBktVb5120UXXVQ95SlPqT7xiU80V+iijCbmw1P5+TSKCMD6DK5iUL7NvS9/+ct1/koOg3GV+8/EAxvKPnEObGBYFHB0Vm6CZdPMFHACW/ddffXV1Yc+9KHqRz/6UXOFrhosxPPzqYQDYDKD5ZuB1PmRAbPkr+Qw4I9lXDmwITl28MAGmZbZsASVThpc4ma/N2ivhPpM5S8/r7l/5xGgDXKPsgR1/pTvvzwHtFnJsyni8jz3rMyWs1cl02UGHJ2SG15GH/JhvsywEdb64/LLL69e/epXV2eccUZzha5LQCmHM5SfXyOHAJTyLZRv8+v73/9+nb+Sw4CbK3k2gzW5X+XXyba5h1meynQo4OiM8uHdktP+uvTSS6uXvvSl1ec///nmCn1RTpmK/Pwq4QDGVzJdOS3b7MP593//9391/koOA9atzHzLfatMBLFPHNOhgKMTcmMro6S54Znu20+77757df7551f/7//9v+YKfZLQkp/fFHBl1DAfwgAYL+WDqvKtHZ7whCfU+Ss5DJia5Fr7xDFdCjharcx6S1BLQLPktN/Wrl1bffGLX6xWrVrVXKFvyhT+BJXy8y2kAIyPsppB+dYeF1xwQZ2/ksOA6SnZthRxUQaazYpjIgUcrZUP5blxWXI6PtasWVOPwn74wx9urtBXE5ek5gOZ2XAA/VUGXZLr7PnWLvk7Sf5KDgNmZrCIK/e4wVlxeQ5OQaV1SkDLY1mylkf675prrqm+9a1v1Usg9thjj+YqfZaf88FTUp0oBcyl3IPywUi2HK3BbJcPprnX0x4XXnhh9Ytf/KK6xz3uUd3ylrdsrgKzNZhzo2TdpUuX+nw7psyAozVygyqz3iI3qowguDmNjxTsm222WXWLW9yiuULf5ee7jBbmw29+7o0SAvRHZlflvp6cl6JT+dY+G2+8cZ2/ksOA4RnMuYOnp2ZAwvLU8aSAoxVK8ZYbUinezIIZP+edd15197vfvXrnO9/ZXGFcJJAkmOQrEkrylQ9sAHRTWX6Ve7xZhu114okn1vkrOQwYvtwD13V6aj4D2w95fCjgmFf5cJ0bT0q3Es4Ub+Nr++23r9+MDjrooOYK46aEk9wTSjARSgC6J/duh2h1w7777lu/5yaHAaNVBp1zX0zejTyWIs7gc7/ZA455kRuLfZ+Y6IYbbqh++9vf1vuPLFy4sLnKuMp9okzPL2HFvR8Yptxn8qFHthyuDJ7k3p3vab63tNu1115b/e53v6tufetbVxttZH4GzKW8D+V+mc/GZUlq7p3ZJ86S/f5xh2VO5QYzuNw0NxXLTSnOOuusauutt65e97rXNVcYZ2VWbFmWWqbpZ5QegPZJzivlW3Ke8q0b3v/+99f5KzkMmFtlMkrul2VWXO6hGYRO7i2D0fSDAo45MbF4KyOi5YM1RMLfy172suoBD3hAcwVuuiw195ISSCxNBWiP3J9zb84HxeQ7g6vdcZe73KXOX8lhwPxJGZd7Z4q4svJj4l5xudfSXZagMlKleCszVvIB2rHLwEzlnpIp+rmn5HkZNfRBD5iJUhrJlrOTrJeMl3uy7QIAhifvUxnYsES1H8yAYyRyc0igzVc+KCeUpevNh2TlG+ty9tlnVzvuuGP1hje8obkCN1VGBssM2vw69xejggBzr+S93IfzgdBhC910/PHH1/krOQxolzLYnOxriWr3KeAYqnwAzo0g02RjsHiDDcnBC3/7t39b3eY2t2muwOQGw8hgEZd7T4KIIg5gdHKPTeYreS/34nzRTbvsskudvxyABe1WBqItUe0uS1CZtfyQlxNNo3wwVroBc6l8IEwQyX0o7xNLliwxPR9Yp9w38qFFtpy6zLQYHGiV9wDmT97Hcl8eXKJaPo8nB3tvaxcFHDNSSreyD1Mo3pit888/v3rsYx9bPeUpT6m/YCbK/WlwUEAZB0xGATd1+V6VpU65r9rrrT9OOumk6pWvfGX1kY98pNp5552bq0DXlAyc+7Qyrp0sQWXK8gNdlpjmq3y4zWOmweZL+cZsXXfdddUNN9zQ/AqmL0Fjsun5g3tl5NcATE3Jf/lAV3KfD3L9kdyV/AV0W8nAGVTKfTr361zLY1mmas+4+WUGHOtVWvTJZro5zRToity/EjZWrlz5p/It96+8l+Re5j0FxlPuDflAIlveXMmAZcA190yz3gC6p+TgMjsuSg62QmRuKeC4mRK4lG7MtYsuuqj613/91+oxj3lMdfDBBzdXYbhKCJmsjBNCYLzkfqCAu6mSAweLt8yocG/srzPOOKN65zvfWb3pTW+qtt9+++Yq0EfrysH5Kp/1vR+OjgJuzOUHMF/5AcwPYmnEIz98Sjfm0llnnVXd9a53rV74whdWL3rRi5qrMDolhAyOCEYJHynkBJGZK99fH9xpq7xGFXB/lO9FOcgm8v0op0zTbx/4wAeqZz3rWdV3vvOdao899miuAn1XctpgGRdtzsFdz5YKuDGTF2w+aMbgDLfID1d5ISvdgHFT3tBXrVpVP+aryP1wMIx4D5q6fKAve5DkPcb3jzbJz/24F3C51+XntNzz8vMqBwKMn5KFJxuYLl95f5jv98vBwaKuZUsFXI/lByhfk81uCx+GaJvLLrusestb3uI1SSvk/hm5d+Y+WkJJkXtoXqd5vZbnTK6UcMWiRYuqAw44oP7edXUEk37Iz/W4FXD5by4frso9rWRCh2mNp+9+97vVJz7xieo5z3lOtfXWWzdXgXFXsm8bc3BXs6UCrsPyQ5Cv/EAM/nrwB6MoPxR5VG7QVnn95oNQbqY+BNBG5R47WRCJ3GPLY7nfll+P+313YlBauHBhtXbt2vp5vj8GhJgP5X2nz9my3Ksyu3fwZ7D83IX33PGWmSQ5GTGnJuZ1ATCZ9eXg3DsGvxYvXnyTX49CsuWb3/zmehJHlGyZvSy32GKLVmZLBdw8ywu3GHweg79OaMqvJ77QB5UXdr435bkPM3RJjsHPDXSzzTarv6Dtyn05X4P36fI1Ubk3lzBSCrqi/O/F4P+/DyaWcIM22WST6rrrrjM7jjmVn9OuF3DlXlPuO7kXDf564gek/FxZYsqga665prrqqqvq2W8bbbRRcxVg/cr7TL7WNTgdg3k2XyX/5vls33snlnCTaVO27GQBl29a10JDWaOcF+UwlResko0+uPLKK6tf/epX1U477VTfKKHrBoPJMO//g++BXSupJu4/Ohmz45greS2mgOtqtpzqfSU/O35+WJeSv25729vWs0YAZqPk3vIeNdX3qsms7725ZOC8H6aAW18J15bZcZ0s4ACA8ZMQlqDUhg2A6Yd8KEgBBwCMn7nOlp0r4MpMMgCgeybuQzUVmRF7+9vfvg5G9qpimFLArWtrDwCg/WaaLZ/+9KfXz+cyW3augAMAumlDs40sPQUAYKq6li0VcADAyG0oIJnlBgDAVE0lW87HLLf1UcABACM1GJDMcgMAYDa6mi0VcADAyAwGJLPcAACYjYnZsm2z3NZHAQcAjEQC0n777WeWGwAAs9b1bKmAAwAAAIAR2qh5BAAAAABGQAEHAAAAACOkgAMAAACAEVLAAQAAAMAIKeAAAAAAYIQUcAAAAAAwQgo4AAAAABghBRwAAAAAjJACDgAAAABGSAEHAAAAACOkgAMAAACAEVLAAQAAAMAIKeAAAAAAYIQUcAAAAAAwQgo4AAAAABghBRwAAAAAjJACDgAAAABGSAEHAAAAACOkgAMAAACAEVLAAQAAAMAIKeAAAAAAYIQUcAAAAAAwQgo4AAAAABghBRwAAAAAjJACDgAAAABGSAEHAAAAACOkgAMAAACAEVLAAQAAAMAIda6A+81vftM8AwDmW96XjzjiiOoLX/hCcwW6RbYEumTZsmX1+y7QPZ0r4FasWNE8AwDmW8qLY489VolBZ+XDLEBX5P3WoBd0U+cKuKOOOsoNBwBaohRve+65Z/0IXZMCWbYEusKAF3RXpwq4BKRYuXJl/QgAADMlWwJdkwLOoBd0U6cKuBKOjjnmmPoRAGgHHwboopItTznllPoRoAu850I3daqAO+200+rHc845x1IBAABmpWTLX/7yl/UjQNtZggrd1akCLsVbYakAAMy/VatWNc+gW7L8tGTLiy66yOAu0BlmwEE3daaAK3t0FJYKAEB7+DBA1zlpH2i7Mvtt8eLF9SPQLZ0p4CbOeDP1FgDmn/djuuroo49unv1RWY4K0Fbec6HbOjsDbvXq1ZYKAAAwI1/72teaZ39kj2Gg7UoBZ9Y5dFMnCriJ5VtsvfXW9oEDAGDaJsuWIVsCXaCAg27qRAE3WRi67LLLqmOOOab5FQAwX3wQoGvWVbTZYxgAGJVOFHDr2pPDUgEAmF/2o6GL1pUtf/nLXzbPANqnnDxu4Au6qRMFXDkifjKWCgDA/PJBgC7J8tN1ZcuLLrrI4C7QWga9oNtaX8Cta4+OwlIBAJg/PgzQJwsXLqxWrFjR/AqgfQx6QXe1voCbbIbbFlts0TwT/AEAmLqjjz66eXZza9euXefyVID55rMvdFsnZ8BdeeWVfyrhVq9ebakAAMwjo/F0yde+9rXm2eTsMQy0VQo477nQXa0u4CaWb4cffvifHksJt/XWW9sHDgDmidF4umRitjzqqKPqx5IxC9kSaCsFHHRXqwu4wfCTYLR8+fL6+dKlS+vnKeEuu+yy6phjjqmvAwDAugxmy2TJZMoo2bKwxzDQRga9oNtaXcCVPTgGy7di8JqlAtAfj3jEI6r3v//9za+ALjAaT1eUbJkMOXHW22C2/OUvf1k/wjj40pe+VOevs846q7lCG5XyzXsudFerC7gUa5OVb8Xg/2apAPTDpz/96epJT3pS8ysAGI4sP022nKx8K0q2vOiiiwzuMjb23XffOn/tsccezRXaqBRwixcvrh+B7mltAZeQtL7yrSj/HyEJ+iHhYs2aNc2vgDazFIauWV/5VpRsuWLFiuYK9NtVV13lft4BZsBB97W2gMuNZUPlW5GgdOSRRza/AroqwWKvvfaq3v72tzdXgC4wGk8XPPCBD9xg+Vbk/1f2h4O+O+GEE+r8pYTrBgUcdFdrC7iEpOmY7v8faJ9FixZVZ5xxRnXEEUc0V4A282GNLpnuh1bZknHxsIc9rM5fyWG016pVq5pnQFe1eg84YLxstNFG1eabb17d4ha3aK4AbWY5DED3bbLJJnX+Sg6jvbznQve5ywKtcd5551V3v/vdq3e+853NFaALfBgA6K4TTzyxzl/JYQCMjgIOaI3tt9++PoDloIMOaq4AbVaWwyjgALorp6AmfyWH0V6ZAef9FrpNAQe0RpY/HHzwwdVf/dVfNVeANrMHHED35SCd5K/kMNpLAQfdp4ADWuOss86qttpqq+q1r31tcwVos3wYsFE9QLcdd9xxdf5KDqPdFHDQbQo4oDW23nrr6mUve1n1gAc8oLkCtJnReIDuu8td7lLnr+Qw2st7LnSfAg5ojQS/V7ziFdV+++3XXAHazBJUgO67613vWucvBVx7lffbLBcGuksBB7TG2WefXe24447VG97whuYK0HZG4wG67fjjj6/zV3IY7WTAC/pBAQe0xsKFC6u//du/rW5zm9s0V4C2+sIXvlA/Go0H6LZddtmlzl/JYbRTKeAMekG3KeCA1thhhx2q97///dVjH/vY5grQVj4MAPRD9t5N/koOo92850K3KeCA1jj//POr+973vtW73/3u5grQdj4MAHTbSSedVOev5DDaaeXKlfWj91zoNgUc0CrXXXdddcMNNzS/AtrKhwGAfkjuSv4CYLQUcEBr7LzzztU3vvGN6mlPe1pzBQCAUTrwwAPr/JUcRjtl24cHPvCBza+ArlLAAa1x0UUXVU9+8pOrj33sY80VoK1yCIMPAwDdd8YZZ9T5KzmMdkoBZ8Y5dJ8CDmiNq6++uvrUpz5V/fznP2+uAG3mwwBA951zzjl1/koOo53KwUdAtynggNbYY489qksuuaR60Yte1FwB2sqHAYB+eOITn1jnr+Qw2sugF3SfAg5ojcsuu6xatmxZvbQNaK9Svi1ZsqR+BKC7vvvd79b5KzmM9im5ePHixfUj0F0KOKA1EvyOOuqoP52uCLST2W8A/ZECLvlLAddO5T3XDDjoPgUc0BpZ+nDxxRdXL3zhC5srQBuVDwMOYQDovixBTf6yBLXdFHDQfQo4oDV+97vfVSeffHL1i1/8orkCtNGqVauaZwB03bnnnlvnr+Qw2sd7LvSHAg5ojTVr1lSHHXZY9bGPfay5ArSR5TAA/fHFL36xzl/JYbSP91zoDwUc0Bo777xz9fWvf7166lOf2lwB2soHAYB+OPDAA+v8lRxG+6SA854L/aCAA1rlhhtuqG688cbmV0Ab5UQ2+78B9ENyV/IX7ZQCznsu9IMCDmiN888/v7rPfe5Tvfvd726uAG1UlsMA0H2f/vSn6/yVHEb7eM+F/lDAAa2xww47VMcdd1z1mMc8prkCtM2xxx5bPy5ZsqR+BKDbHvCAB9T5KzmMdrIEFfpBAQe0xmabbVY95CEPqW5729s2V4C2shwGoB923XXXOn8lh9Eu2fIhFi9eXD8C3aaAA1rjrLPOqkdf3/CGNzRXgLZZuXJl/Wg0HqAfPvCBD9T5KzmMdnECKvSLAg5oja233rr6j//4DzNroMUcwADQL3e9613r/JUcRrusWrWqflTAQT8o4IDWSPD793//d3tLQYtlNN4HAYD+uMtd7lLnLwVc+5gBB/2igANaI0sfttlmm+q1r31tcwVok7IXjZIcoD/e//731/nLEtR2Ur5BfyjggNbYfPPNq0c96lHV7W9/++YK0CZlJN4SVID+2GOPPer8lRxGu9j2AfpFAQe0xvbbb1+tWLGievSjH91cAdrEAQwA/bPvvvvW+Ss5jHYpA19APyjggNY4//zzq3vc4x7VO9/5zuYK0CYZiVe+AfTLpz71qTp/JYfRPt53oT8UcECr3PKWt6w22WST5ldAm2Qk3lIYgH7ZaKON6vxFu5R9VxcvXlw/At2ngANaY+edd66+/OUvV//wD//QXAHaoiyDcQADQL88/OEPr/NXchjt4QRU6B8FHNAaa9asqQ499NDqwx/+cHMFaIsyEg9Av2R/z+Sv5DDaY9WqVfWjAg76QwEHtMbatWvrD/k2nIX2KQcwWIIK0C+rV6+u81dyGO1hBhz0jwIOaI3dd9+9DoHPf/7zmytA2/ggANAvT3jCE+r8lRxGe6SA854L/aKAA1rj0ksvrV72spdVn//855srQFtkdsThhx/e/AqAvvi///u/On8lh9EeKeDMOod+UcABrXH55ZdXr3rVq6ozzjijuQK0hZF4gH76/ve/X+ev5DDaw5Ys0D8KOKA19thjj+qKK66oXvziFzdXgDY49thj68fFixfXjwD0x9/93d/V+Ss5jHYo5ZuTx6FfFHBAa1x99dX1Cag/+clPmitAG5ST2CyFAeif3OOTv5LDaAcnj0M/KeCA1rjooouqf/iHf6g+8YlPNFeANigj8ZagAvTPl770pTp/JYfRLga+oF8UcEBr7LLLLtV3vvOd6p/+6Z+aK0AbOIABoL8e9ahH1fkrOYx2WLlyZf1o4Av6RQEHtMYNN9xQ/fa3v62uueaa5gow37L/W2bA2YcGoJ9+//vf1/krOYx2cPAR9JMCDmiN1atXVw94wAP+tOE70B6WwQD008knn1znr+Qw2iEFnPdd6B8FHNAaO+64Y3XCCSdUj3vc45orwHxbsWJF/WgkHqCf9ttvvzp/JYfRDmXvVaBfFHBAa9zylres7nvf+1a77757cwWYb/Z/A+i3HXbYoc5fyWHMv3ICqq0foH8UcEBrnH322dWuu+5a/dd//VdzBZhPZTm4DwEA/fWhD32ozl/JYcw/J49DfynggNbYZpttqte85jXVgx/84OYKMJ/KKWz2oQHor7vf/e51/koOY/6tWrWqflTAQf8o4IDW2GqrraoXv/jF1b777ttcAeZTWX7qQwBAf/31X/91nb+Sw5h/ZsBBfynggNbIiN+tbnWr6lWvelVzBZhPNoEG6L/3ve99df4qM6+YXxn8MvMc+kkBB7TGFltsUT3pSU+q7nznOzdXgPlS9n9bunRp/QhAP93mNrep81dyGO1g9hv0kwIOaI3tttuuete73lU98pGPbK4A88X+bwDjISegJn8lhzH/MvtcAQf9pIADWuO8886r7nKXu1TveMc7mivAfCn7vwHQb5/85Cfr/JUcxvzKe28sXry4fgT6RQEHtMZGG21UbbvtttXChQubK8B8yAeAjMAvWbKkuQJAX2266aZ1/koOY36VvVfNPod+cpcFWmPRokXV6aefbtYNzDMfAADGxwEHHFDnr+Qw5lfZ/sESVOgnBRzQGhdeeGH1mMc8pvrgBz/YXAHmw4oVK+pHHwAA+i/lW/JXchgAo6OAA1rj2muvrb75zW9W5557bnMFmA/2fwMYHxdddFGdv5LDmF/ef6HfFHBAa+y2227V2WefXT3vec9rrgBz7dhjj60f7f8GMB4e97jH1fkrOYz5VbaAAPpJAQe0xqWXXlq98IUvrD772c82V4C5Vvafsf8bwHj41re+Veev5DDmTzkB1QAY9JcCDmiNyy+/vHrDG95QfeUrX2muAHOtLH+x/xvAePjhD39Y56/kMOaPA5Cg/xRwQGssXry4Wrt2bfWyl72suQLMNctfAMbL3//939f5KzmM+eMEVOg/BRzQGldeeWV9+uJ3v/vd5gowl8r+b0uXLq0fAei/X/3qV3X+Sg5jfinfoN8UcEBrXHzxxdU//dM/VZ/61KeaK8BcWrZsWf1o+QvA+MjWH8lfyWHMn2wB4f0X+k0BB7TGrrvuWu9D8s///M/NFWCuJPhn+elRRx3VXAFgHDz60Y+u81dyGPMn78FmwEG/KeCA1rj++uur1atXV1dddVVzBZgrWX4Ulp8CjJff/e53df5KDmN+lC0g7MMH/aaAA1oj4e9v//Zvq//93/9trgBzxemnAOPp1FNPrfNXchjzyxJU6DcFHNAaO+64Y/Xxj3+8esITntBcAeZCRt6z9GXJkiXNFQDGxYMe9KA6fyWHMT+cgArjQQEHtMamm25a7bPPPtWiRYuaK8BcKMHfyDvA+Nl2223r/JUcxvyw/xuMBwUc0BrnnHNOHT7e8pa3NFeAuZAZcJafAoynD3/4w/X9PzmM+ZECziAY9J8CDmiNjMD+53/+Z/WQhzykuQKMWtn42fJTgPH0N3/zN3X+Sg5jftgGAsaDAg5ojS233LJ63vOeV93nPvdprgCjVk4/zQw4AMbPHe94xzp/JYcx98pAGNB/CjigNVatWlXvP/KKV7yiuQKMWjn9FIDxlNPnk7+Sw5h75ftuCSr0nwIOaI0tttiieupTn1rd7W53a64Ao1RG3ZcuXVo/AjB+/vIv/7LOX8lhzL0sPw37sEL/LbjxD5rnnbBgwYLq9NNPN0IAALO033771TPgOhYFYGjywXevvfaSLYF5k3tQ7j/Lly9vrgB9ZQYc0Brnnntu9Vd/9VfV2972tuYKMEqWnwLwsY99rM5fyWHMvQwEmP0G40EBB7TGJptsUu2xxx7V1ltv3VwBRuWII46oH4888sj6EYDxlKWnyV/JYcytshXE4sWL60eg3xRwQGvstNNO1amnnloddthhzRVgVDL7LUtejLoDjLf999+/zl/JYcwtBzDAeFHAAa1x4YUXVo985COrD3zgA80VYBQy4p4lLw5fAOBzn/tcnb+Sw5hbDmCA8aKAA1rj2muvrX784x9Xa9asaa4Ao7By5cr60Yg7AJdddlmdv5LDmFv2YoXxooADWmO33XarfvWrX1XPfvazmyvAKGQGXAK/EXcAHvvYx9b5KzmMueUABhgvCjigNS655JLqX//1X6tTTjmluQIMW9nw2fJTAOIb3/hG9dznPrfOYcwdBzDA+FHAAa1xxRVXVG9+85urr3/9680VYNiWLVtWLz21/BSAyPLTt7zlLXUOY+44gAHGjwIOaI1Mwb/++uurl7/85c0VYJgcvgDARHlPSP6yFHJuOYABxo8CDmiNjLy+/e1vr775zW82V4BhWrFiRf1ow2cAip/+9Kd1/jIDbm45gAHGjwIOaI3sPfIv//Iv1cknn9xcAYYls98S9pcvX95cAYCq3voj+csecHPLAQwwfhRwQGvsuuuu1c9//vM6BALDZfYbAJN5zGMeU+ev5DDmhgMYYDwp4IDWuO666+pj8I3AwnBl5pulLgBM5re//W2dv5LDmBsrV66sHx3AAONFAQe0xgUXXFA97GEPq4477rjmCjAMZfbbkUceWT8CQPHZz362zl/JYcyNDIpl+aklqDBeFHBAa+y0007VSSedVD3pSU9qrgDDkKUumf0m6AMw0f7771/nr+Qw5kb2fzP7DcaPAg5ojU022aTae++9q+222665AszWEUccUT+a/QbAZG5961vX+Ss5jNEr+78tWbKkfgTGhwIOaI1zzz23+su//Mvqv//7v5srwGyZ/QbA+nz0ox+t81dyGHPHDDgYPwo4oDW23Xbb6q1vfWt1wAEHNFeA2Vi2bFn9uHTp0voRACa6173uVeev5DBGrxzAYGAMxs+CG/+ged4JCxYsqE4//XQjBtBTuSXl5xyYvb322qsO+HnfBG4u+zDl50S2ZNzJX3Mn95zcb5YvX95cAcaFGXBAa+SD0EYbbfSnWTvAzGXpaX6m7P0GwPrk/SL5K+8ZjF6+z/Z/g/GkgANaY8stt6ye85zn1EshgNlJkZ3Zb2b1ALA+d7jDHer8lRzGaJUDGCw/hfGkgANaI3uPvPnNb7YHHMyS2W8ATNU973nPOn/ZA270yv5vBsdgPCnggNbI6Vs5Bj8bAQMzt2LFivoxp58CwPrkFNTkL6egjt4XvvAF5RuMMQUc0BqbbLJJdfvb377afvvtmyvAdGX2WwL+UUcd1VwBgHXL0tPkr+QwRiuz0y0/hfHlFFQA6JGcrhZnnnlm/QisWz4MOwUVmAsZIDviiCPq00/NUIfxZAYc0BoXXHBB9dCHPrR63/ve11wBpiMHL6RQSLgHgKn47Gc/W+ev5DBGx/5vgAIOaI3rrruuWrVqVXXZZZc1V4DpyLLTBHvhHoCpuvLKK+v8lRzG6GR7iLAEFcaXAg5ojV133bX66U9/Wj3rWc9qrgBTlWUt4eRTAKbj4IMPrvNXchijkxnqlp7CeFPAAa1x8cUXV8985jOrT3/6080VYCoyqp69ZRLszX4DYDq+9rWv1fkrOYzRyHt0LFmypH4ExpMCDmiNLIF45zvfWX37299urgBTkb3fwuw3AKbr5z//eZ2/ksMYDfu/AaGAA1pj8eLF1e9///vq5S9/eXMF2JDMfstX9n+zrwwA0/XkJz+5zl/JYYxG3qdTvnmfhvGmgANa44orrqje9KY31UshgKkx+w2A2fjxj39c56/kMEYj+78p3wAFHNAal1xySfW85z2vOvXUU5srwPpkT5mMqi9fvry5AgDT841vfKPOX8lhDJ/934BCAQe0xm677VadeeaZ1XOe85zmCrA+Ofk0S1qcqgbATB1yyCF1/koOY/jK/m/eqwEFHNAa1157bfX973+/uuCCC5orwLqkfAtLTwGYjUsvvbTOX8lhDF9mqivfgFDAAa1x4YUXVgcddFB1/PHHN1eAyWQvmSxpSaB3ohoAs/G5z32uzl/JYQyf/d+AQgEHtMaiRYuq0047rT6NC1g3s98AGJaHPvShdf5KDmO47P8GDFLAAa2x8cYbVzvvvHO1xRZbNFeAibKUJV9HHXWUEXUAZm2zzTar81dyGMNV9n8zWx0IBRzQGueee251xzvesXr729/eXAEmWrZsWf1o9hsAw/Dxj3+8zl/JYQyX/d+AQQo4oDW222676h3veEd14IEHNleAQSnfEuaXL1/eXAGA2bnPfe5T56/kMIYr+79ZfgoUCjigNbL0NKOE++yzT3MFKMqy0yxjMZoOwLDsvffe9fuKLUCGq+z/ZvkpUCjggNZYtWpVtXDhwuqVr3xlcwUoytJTs98AGKb3vve9df5KDmN4VqxYUT/arxUoFHBAa2y11VbV85///Oq+971vcwWIsvT09NNPF+QBGKo73elOdf5KDmN47P8GTKSAA1pjm222qd7whjdU+++/f3MFGFx6ahkLAMN2j3vco85fyWEMR1l+unTp0voRIBRwQGucc8451R577FG96U1vaq4ARxxxRP2Y2W8AMGwnnHBCnb+SwxiOlStX1o8GzoBBCjigNTbddNN6FHaXXXZprsB4S/mWE9SUbwCMyvbbb1/nr+QwhiMz4Cw/BSZSwAGtseOOO1Yf/ehHqyc84QnNFRhfWXpaArwRdABGZb/99qvzV3IYs1eWny5ZsqR+BCgUcEBrrF69unrQgx70p1OjYJxl9lsOXHDqKQCjdOqpp9b5KzmM2bP8FFgXBRzQGjfccEN10UUXVVdffXVzBcZTZiNk6anyDYBRW7t2bZ2/ksOYvXL6qVPLgYkUcEBrZO+373//+9U///M/N1dg/CS4D558CgCjdNBBB9X5yx68s5fBs3xZfgpMRgEHtMbFF19cPe1pT6tOPPHE5gqMl4T2zH7LqPmRRx7ZXAWA0fnKV75S56/kMGYnA2hhAA2YjAIOaI0rr7yyOu644+pRWBhH2fctLD0FYK78+te/rvNXchizU/YxtvwUmIwCDmiNxYsX1/u/vfSlL22uwPjIqWmWngIw1w477LA6fyWHMTtl/zeAySjggNa4/PLLq9e97nXVl7/85eYKjIcsPc3stxRvlp4CMJd+8IMf1PkrOYyZy0BaLF26tH4EmEgBB7TGpZdeWr34xS+uTjvttOYKjIey9FT5BsBc+/a3v13nr+QwZq4sPzWLHVgXBRzQGrvvvnt17rnnVs973vOaK9B/OXQhS1ZOP/10oR2AOff4xz++zl/JYcyc5afAhijggNa45pprqq9+9avVOeec01yBflu2bJl93wCYV2vWrKnzV3IYM2P5KTAVCjigNS688MLqkEMOqT70oQ81V6C/Bos3S08BmC+ZgZ38lRzGzFh+CkyFAg5ojUWLFlUrV640fZ/eS/mWpad77rln/cEHAObLwx72sDp/JYcxM5afAlOhgANaY6ONNqq23HLL6pa3vGVzBfqnnHgayjcA5tstbnGLOn8lhzF9Zfmp2ezAhrjLAq1x3nnnVXe9612ro48+urkC/ZPyLSVcyrfMgAOA+fTJT36yzl/JYUxf9nPN+7n3dGBDFHBAa2y//fbVe97znuqggw5qrkC/OPEUgLbZd9996/yVHMb05D09g2pmvwFToYADWmPzzTevHve4x1V3uMMdmivQH+XE0+wRo3wDoC0WL15c56/kMKbH4QvAdCjggNY466yzqlvf+tbVa17zmuYK9EOKt3Li6fLly5urADD/jjvuuDp/JYcxPXl/z3u75afAVCjggNbYaqutqn/7t3+rl0JAX2RpihNPAWirO9/5znX+Sg5j6nL4Qt7jly5d2lwBWD8FHNAa22yzTfWqV72qevCDH9xcge4rJ56a+QZAG93tbner81dyGFO3cuXK+tHyU2CqFHBAa5x99tnVzjvvXL3xjW9srkC3OXQBgLb74Ac/WOev5DCmruzravkpMFUKOKA1Fi5cWD3gAQ8QZOiFzHwb3PsNANpo0aJFdf5KDmNqyvLTJUuWNFcANmzBjX/QPO+EBQsWmEkAQKulfEs4z3uVfd+gvfIBeq+99pItgWkpM9w79lEamGdmwAGtsXr16voAhve85z3NFeieFG/KNwC64uSTT67zV3IYU1OWnwJMhwIOaI2MIq5du7a67rrrmivQLSneMvtN+QZAV1x//fV1/jKba2rK4UpHHnlk/QgwVZagAsAQKN+geyxBBaYr94zsV+y9HpguM+CA1rjooovq6fwf//jHmyvQDco3ALrqS1/6Up2/ksNYv7zfp7hfunRpcwVg6hRwQGtcffXVdfn205/+tLkC7ad8A6DLzjrrrDp/JYexfitWrKgf7f8GzIQCDmiNPfbYo7rsssuqF7/4xc0VaDflGwBd96QnPanOX8lhrFtmvjl8AZgNBRzQGgl/r3jFK6qVK1c2V6C9lG8A9MH3vve9On8lh7Fuy5Ytqx8dvgDMlAIOaI0Ev5e//OX16CK0WV6jyjcA+uA73/lOnb8UcOuXgbfMfssBDAAzoYADWmP33XevLrzwwuoFL3hBcwXaJ+Xbfvvtp3wDoBcOPfTQOn8lhzG5lG+xZMmS+hFgJhRwQGusXbu2Ou2006pf/epXzRVoF+UbAH1z/vnn1/krOYzJOXwBGAYFHNAaa9asqTcC/uhHP9pcgfYo5VuWnijfAOiL7L2b/JUcxs3l/T9fRx11VHMFYGYUcEBr7LzzztVXv/rV6ilPeUpzBdphsHw788wzm6sA0H2PeMQj6vyVHMbNldlvS5curR8BZkoBB7TKxhtvXG20kVsT7ZFTz5RvAPTVggUL6vzFzf3mN79x+AIwND7lAq2RPUjuec97Vu9617uaKzC/ctJplpxkzzflGwB99KlPfarOX8lh3FQG4eLII4+sHwFmQwEHtMb2229fvfe9760OPvjg5grMn8x6K6Pe9nwDoK/uf//71/krOYybMvsNGCYFHNAam2++efXwhz+8+ou/+IvmCsy9LDdJ+VY2XF6+fHnzvwBA/+y22251/koO488yCz7s/QYMiwIOaI2zzjqr2m677arXv/71zRWYWynd9tprr/oxs94sOQGg7z7wgQ/U+Ss5jD8rs9+yDQXAMCjggNbYeuut6xlHS5Ysaa7A3Bk86TTlm8ANwDjYZ5996vyVHMYfmf0GjMKCG/+ged4JOaXHByMAhimbLOfDh5NOYbxkyXlmvcqWwKB85sw9wR6wwDCZAQe0RlmC+rrXva65AqPnpFMAxpklqDfl5FNgVBRwQGuUQxj+8i//srkCo1MOW3DSKQDjzCEMN5VckEE5s2KBYVPAAa2R4+9zDP7BBx/cXIHRSPmWmW9OOgVg3N3//vev81dy2LhL+ZaMYPYbMAoKOKA1zj///Ope97pXdcwxxzRXYPicdAoAf/bpT3+6zl/JYeMuy0/NfgNGRQEHtMpGG7ktMToJ1k46BYCbkr/+mBHMfgNGySmoAPTe4JLTvH/Y7w2I3BucggqEk0+BUTPUAbTGmjVrqic96UnVRz7ykeYKzN7gktPs9yZYAxOdcsop9eM//uM/1vthxROe8IRq5513rp//27/9W/3h/Kqrrqre85731M+/973vVStXrqyf533r3HPPrZ+//vWvr39PNrTPnxd//dd/XT34wQ+un2ef08WLF9fPn//859e/59prr63e8Y531M9/8pOfVKeddlr9/MQTT6xPZ87zN7/5zfXv2WSTTapnPetZ9fPb3/721QEHHFA/f8QjHlH9xV/8Rf38Oc95Tv174q1vfWv9/Je//GV10kkn1c9PPfXU6uc//3n9/H/+53+q66+/vn7+vOc9r/49t7nNbapHPepR9fP999+/usMd7lA//+d//ufqlre8Zf38P//zP+vfk5MzP/7xj9fPP//5z1c//OEP6+fvete7qrVr19bPX/SiF9W/J5v9H3LIIfXzFB377LNP/fwpT3lKtcUWW9TPX/Oa19S/Z/Xq1dUJJ5xQP//Sl75U/d///V/9PHt0XXHFFfXzf//3f69/z0477VQ98YlPrJ/f9773re55z3vWz5/85CdX2267bf08s5vyey6++OLquOOOq59/4xvfqL7+9a/Xz9///vdXF110Uf38P/7jP+rfs80221RLly6tn//N3/xNdb/73a9+fuihh1aLFi2qn7/sZS+rf89vf/vbej/RPP/Od75TnXHGGfXzD3/4w/XSzjx/7WtfW/+eW93qVtVTn/rU+vld7nKXemZ2PPaxj6123333+vkLX/jC+vdcc8011Tvf+c76+Y9+9KPqc5/7XP38E5/4RLVq1ar6+X/913/Vv2fTTTetnvGMZ9TP/+qv/qp66EMfWj9/5CMfWd32tretnz/3uc+tf88NN9xQve1tb6uf5789/w55fvLJJ1e/+MUv6uf//d//XWWuRp7n98Xee+9dHXjggfXz/Pn558Qzn/nM6ha3uEX9PP8++T0puD/5yU/Wz/Pv/eMf/7h+fvTRR9f/XXme/87YY489qsc85jH18/y73PnOd66fP+1pT6u/X5FT8vN7zjvvvPr7mudf/OIXq+9+97v183z/r7zyyvr5S1/60vr35O8pf1+x7777Vve4xz3q5zl8aeutt66fv+IVr6h/T+T/k+df+9rX6tdHnr/vfe+rLrnkkvp5OSE1p8b+/d//ff08r7e87iI5dscdd6yfv/zlL69/z+WXX16tWLGifp7X8Ze//OX6+Yc+9KH6dZ7nr371q+vfc+tb37r+eYi73vWu1ZIlS+rn+bnJz0+8+MUvrn/P7373u/rnLM9/8IMf1Pkmz/PzePbZZ9fP3/jGN9a/Jz+3T3/60+vnd7zjHeuf6zjooIPqjBT5+c/vyf3g7W9/e/38Zz/7WX2/yPMsVf7Vr35VP899JTJz8tnPfnb9PPef3IfiYQ97WHW7292ufv4v//Iv1cYbb1w/z30svz/3tU996lP1889+9rP1fS/P/7//7/+rfv/739fPc3+MrFp49KMfXT/PfTT30/inf/qnarPNNquf576b33POOedUH/3oR+vnuT9///vfr5+/+93vru/feZ77eeyyyy7V4x//+Pr5Ax7wgOpud7tb/TwDtltttVX9/FWvelX9ey688MLq+OOPr59/5Stfqb71rW/Vz7N34mWXXVY/LzMns5fiYYcdVj+/973vXX9FrpV9FvP/ze/J782fkef5M/Nn53n+Wfln5nn+HSL/Tvl3i/y75t858t+Q/5YYfK/Kf3Oe53tQ3qvyvcn3KM/Le1W+h/lexuB7Vb7n+d5Hea/K303+jvI8f2f5u8vz/F1OfK/K33l5r8prIa+JGHyvymunzL4t71V5jeW1lud57eU1mOd5TU58r8prN6/hyGv6IQ95SP28zTb+w4eRo5rnnZCbXm6Y5cUA9EfCTUJFgn4JuTAbec9IWMl7xsc+9rH6/QOgyIeft7zlLfWH2/IhKSdx54NvQn7ej8oH65RS+TCcDxUp5vI8pVFKmpRJ+WC1cOHC+nnKhMgHpPIhNAVOKZzudKc7Vfe5z33q5yk08nvyIWTXXXet/9wUDimO8jx/bj4g5f9TPoDnevkAkw//pazIh6fs5ZV/9/zv+T2R35fn+XNSHOR5/vyUhPmz8r/n9+R6/n0i34/8ebmekqiUWvn+5Pfkesqi/J78d++www7183w/8n3J83yf8v3K83z/Iv/dKQAi349SiKRMLOVnCsr8npQGKTPyPB8+U07keUqVFJF5XsqD/D2VojAfTu9+97vXz1MQpVSJ/H/ze/J782fk+ZZbbll/5XmKvJRYeV4+a+TfKf9ukX/XvDZistdG/tz8N+f353uQgifP873Jf0uel9dG/v95beT7mD+3vDbyvSmvjZRm+T15beQDdn5Pec3l+eBroxR3uV5Ok89rIa+N/DPKayPKayPX83eff7eUcClK8/vzGlnfayN/Tnlt5M8vr438ufk9MfjayL9nnuffO6/tPM9/T/678ryUg/nvzs9G5PuRn5n8M/Lfk5+lPM/3L79n8LWR7/PE10b+PcprbvC1kb+/8trI32teGyknMkiXQi2leV4H+bMmvjZSMObPLa+N/N5SQObPLAXOYI7Nay6/Z12vjfw3lNdGKeYHX3OD942Jr438ufn5mvjayJ81eD+a+NrI9zF/Z/m5zvN8z8v9r9yPcj33ozzPa2F996M8L/ej8pqLwfvG4P1ofa+N/DPyz5342si/X3lt5M+d+NqIwddGfubyZ+X7XO5Hg/eNwddGuR/ltTHZ/Sh/3/k9uTeU10buR3lt5J+RPzevjVwvr438/ZfXRl4X5bWRa/nf8u8+2f0or+P82Xme10b+mflnlNdGXnPltTF4P8p/w/ruR/neltdGvjcT36vy/y/3jYnvVet6beT3lPeqXF/fayO/Z7L3qhh8beT35fnga6O8V+V5/rn5s/K83I/KfSPXB78/bWUJKgC9Y8kpMBWWoAKZcZe8kBk8pUABGAVLUIHWyEyETNdXljAbWZ6UD9QJ01mO4vUEAOuWJbPJX8lh4yaZoWxRoXwDRk0BB7RGgl/24ch+HjBdmcmSUeyy5DQj2ZacAsD6ZT/D5K9xLOCyVUUyg5NPgbmggANaI/sQJPyVzZphqjJ6XWa9ZRTbMhIAmJocHJD8VfaDGhcp3zJ4l9nyAHNBAQe0xtVXX12f3PTTn/60uQIblgCdmW8p3LLc1Cg2AExdOck2OWycZMAuez/a/xGYKwo4oDVy/H+WDOZofdiQsuS0BOjMehOiAWB6vvSlL9X5KzlsXGS7ijBoB8wlBRzQGjlG/Vvf+lZ9BDysT2a9DS45ddACAMzMIx/5yDp/JYeNg2SHHL6Q0tHAHTCXFHBAa9x4443V2rVrq9///vfNFbipzHpL8VZOK7PkFABm5/rrr6/zV3LYOMggXsgPwFxTwAGtcf7551f77ruvzXC5mRRvZdZblIMWjFwDwOycdNJJdf5KDuu7LD3NDLgM4DmsCZhrCjigNXbYYYfqgx/8YHXIIYc0V+DPy01TupXizag1AAxHBrOSv5LD+qwsPc1/rwE8YD4o4IDWWLhwYbVkyRIjktQGD1mw3BQARmOnnXaq81dyWJ9l9lvJEwDzQQEHtMbZZ59dLVq0qHrjG9/YXGEcDS43zXPLTQFgdDL7LfkrOayvMqCXTGGbE2A+KeCA1thmm22qV73qVdWDHvSg5grjxnJTAJhbd7vb3er8lRzWR1l6mi+nngLzbcGNHTvuZsGCBfW0YTdPgP7IqHTZGDnLQzJC7T4PjFruPSn9ZUvor3x+TLbIoB7AfDIDDmiNs846q7r1rW9dvfrVr26u0HeWmwLA/DruuOPq/JUc1jdZehqWngJtoIADWmPzzTevHve4x1V3vOMdmyv0meWmADD/Mjss+Ss5rE9y4mlm1idjGNgD2sASVADmVIq3hOGw3BSYT5agQj+Vn+38XDv1FGgLM+CA1jjvvPOqu971rtU73vGO5gp9kuItgygp30rxZrkpAMyvT37yk3X+Sg7rg5RvZempmfVAmyjggNbYaKONqi233LJauHBhc4WuK3u8TVa85TQyAGB+bbrppnX+Sg7rgxzqlPxhZivQNpagAjB0Cb4rVqy4yVLTjEIr3YA2KcvUZEvoh8x8y75vfqaBNjIDDmiNNWvW1JsAn3DCCc0VuqbMeCuHK5jxBgDtlsIq+Ss5rMuSPxy6ALSZAg5ojbVr11Zf+cpXenkMft9NVrxl9FnxBgDtduGFF9b5KzmsqwaLN/u+AW1lCSoAMzbZUlOnmgJdYQkqdF/Ktyw9zc9wfpYB2soMOKA1Lr300urFL35xddpppzVXaKv1zXjzIRYAuuPb3/52nb+Sw7omeSTlW8khAG2mgANa4/LLL69e97rXVV/+8pebK7TNscceW58upngDgH74wQ9+UOev5LCuSSaJzL4HaDsFHNAaixcvrq666qrq3/7t35ortEGZ7ZYtABJ0yz4rKd0UbwDQbYcddlidv5LDuqLMfEsmsYQc6AoFHNAaCX/vf//765FY5t9ks91K8ZYNjvNrAKDb8r6e/JUc1gUp38qAoPIN6BIFHNAaF110UfW0pz2tOvHEE5srzLUNzXZzshgA9Eu2/kj+Sg5ru+SUDAwq34AuUsABrbHLLrtU3//+96unP/3pzRXmShlNNtsNAMbLQQcdVOev5LA2S+mWnFL2n1W+AV2jgANa44Ybbqguvvji6ne/+11zhVEanO1WRpPNdgOA8XLNNdfU+Ss5rK2SUcpppzlwQfkGdJECDmiN1atX1+FqxYoVzRWGrZRu+T6b7QYAnHLKKXUuSA5rI+Ub0BcKOKA1dtxxx+qjH/1o9YQnPKG5wjBMVrrlmtluAMCDHvSgOn8lh7VNDoQq5VvyivIN6DIFHNAam266aXWPe9yj2nnnnZsrzFQp3VK4TSzdsm+K2W4AQGy33XZ1/koOa5PkmOxPm9ItuQWg6xRwQGucc8451R577FG9+c1vbq4wHaV0K3u6pWyLiTPdjB4DAMUJJ5xQ56/ksDZInik55vDDD68HDgH6QAEHtMa2225bveENb6j233//5gobkn1RJpZuZU+3G2+80Uw3AGC9/uZv/qbOX8lh863M3o8Ub9nzDaAvFvzhA9qNzfNOyIdMx04D4yqjwuWQijLDLVKwZZTYXm4AU1dm2siWML/ys5jlphlYzM+iWW9AH5kBB7TGqlWrqoULF1avfOUrmyuUZaUTZ7nlKwF14kw3AIDpeO9731vnr+Sw+ZCDFpJvUr4l1yjfgL5SwAGtscUWW9SzuPbZZ5/myvgphVtO/Bos3BJOS+GWYJrSLY9KNwBgNvbee+86fyWHzaVknuSdzHwrp5zKNUCfWYIKMI8SPrOkNKO++SoSRPOVe92SJUvc8wBGIPdgS1BhbpXsk0HFyKPiDRgHCjigNc4999zqIQ95SPXMZz6zesYzntFc7Y8EznytXLly0sIt97U8Ll26tH4EYLQUcFBVH//4x6uXvvSl1Wc+85lq1113ba4O38TiLVknhyz42QPGhSWoQGtsvPHG1c477zznSyCGLQEz5VrZu21wOWmeJ3jm/5PHfGUcJMsuEkIzAqx8oy/yc1A21QagnTbbbLM6fyWHjUIyT/JQ2VYjhVtyT76Ub8B0ZFueLmdLM+AAZiiBMsqppHkjmOzNYHB22+LFi+t9VmBclKC0aNGi6oADDqiXVJefCZhvuY+bAQejkZ+vwRlv+RnLYKOBRmA2UujnvjKYLctnrbZTwAGtceGFF1ZPe9rTqic+8YnVoYce2lydf9Mp2kqxkKJNyQB/VEq4QSU0Zcm1nxPmiwIOqurzn/989Za3vKV617veVe24447N1ZkppVuU4i2PttcAhqmUcIO6kC0VcEBrnHPOOdX973//6jnPeU713Oc+t7k6OqVYy2O+yvH7pVwr1ydStMH0TVbCLVy4sFq7dq3Zccyb3OMVcIy7D3/4w9ULXvCC6owzzqh222235urU5ecopdvgAGXu5Znxr3gDRmWyEm6ybJn397bchxRwQC9MLMrKr/NYirU8H/xal3KDHiwCFG0we5OVcEX2frzyyivr52bHMVfyXqCAg+nJz83EWW6RnJTSzentwFyZrIQrShkXbcmWnSzg3NChny655JL6a9ttt62/JhoszdZXoM2UewuMXn52p/Lzu8kmm1TXXXed2XGMVF6LKeC8rhhnJX/tvffezZX1m2wbDj9DwHyZ7J40mcmyZe5dZfLFXOhkAQcAjKcEJZt4MyylgAMAxtNcZstOFnD55hhlgdErs1TymGWc5deDe6QNw+DNLs/zMw70U+4f61qGOqiMUkbuC5Y1MQqlgJMt6Yq8ZoeRyyZ+0Cy/Lj8HZeuNif8/gLaZTbac630q7QEHY6oEuBLiYjDArS/ElZtUHgd/FhPWiok3ssFfz+VNDmiP3GP222+/5lfrlqUBT3/60+vnRx55ZP0Io5D3OnvA0VZ5fea+mZyWx5LTJkquGvyKDFhE+XV5BOiTqWbLHDDz1Kc+dd4HcxVw0HOD4a0Ua+sLcOWxfJUR0PBzB8zUZAFpcHPc3GfMcmOuKeBoi7wWy8EGuV9OzGoll+V1Wso1r1lgnE01W7bpNGYFHPREKddWrlz5p+frC28hwAFzYbKAZJYbbZD3SgUc8yGvvRRu6yrb8qExDEoA3Nxk2bIts9zWRwEHHVPKtQ0VbSG8AfNtMCCVD5XuSbRF3kMVcMyFvNbKDLejjjqqfgxlG8D0TJYt2zTLbX0UcNByJbDlRqNoA7pk8AOnWW60kQKOUclrK7ktW4Ace+yx9a8j2S1feb115QMjQFuUbNnVz70KOGiZclOZWLgNBjZFGwDMngKOYUt2S45L6VYkv5n9C4ACDuZRgn++spx0ssItr/M8GiEFgOFTwDEMZfC0LC0thVsOsiqrFABAAQdzaEOFWwlplmoBwOgp4JipiaVb5DWUQVOlGwCTUcDBiJWApnADgHZRwDEdk5VuJc/JcgBsiAIORmB9Ac3+HwDQDgo4piL7uS1btqx+vYTSDYCZ2Kh5BGYps9sSzlISJ8ynfEtAy2N67jPPPLMOagI+AEC7pWwrue6II46or03MdAAwHWbAwQyVWW55HDzpKq/NfAlmANBuZsAxUcl3ZRWD2W4ADIsCDqahhLLB/dxKMAvhDAC6QwFHMXGZaSndkvMAYBgUcLAB6yvdHC8PAN2lgCOlm9luAMwFBRysQ0J5QllZXlpCmUMUAKAfFHDjS/EGwFxzCAMMKKVbwni+MuMt4SzB3CEKAADdVnJe8l2Kt+XLlztUAYA5oYCDP0jxlhOuSiCLPCrdAAC6L4Oqk+U8W4kAMFcUcIytibPdstS0hDEjoQAA3VeKt/3226/+9eAAKwDMJQUcY2eweBscBc12iAljWY4AAEB3Je+ldFO8AdAWCjjGwsTZbglhJYgJYwAA/VCKt+S9PFe8AdAWCjh6zWw3AIDxUDJfOURL8QZAmyjg6KUUb4OHKuRr8CRTAAD6YfCAhRycJe8B0EYKOHplsHgrhyqU2W5OMgUA6I+y0qHs87Z8+fJ6wNUKBwDaSAFHL6yveAMAoF8GtxjJV2a9HX744c3/CgDto4Cj0xRvAADjI9kvM96S+TLTLTPe5D4AukABRycp3gAAxkuZ9ZYcWGa92WIEgK5QwNEpijcAgPHikAUA+kABRyco3gAAxs/gIQtZbpovAOgiBRytVvb5ULwBAIyPkgEHZ71ZbgpAlyngaKWErrLPR5YdKN4AAMZDWXJaMqBZbwD0gQKO1slMt8F9PhRvAADjoSw5dcIpAH2jgKM1ylKD7PVWQpcRTwCA/htccnr44YdbcgpA7yjgmHeTLTcVugAAxkPJgcmEGXxdvnx5878AQH8o4JhXlpsCAIynwVlvZfWDAVgA+koBx7yw3BQAYHyVLDi4+iGZEAD6SgHHnLLcFABgvJVTTsuSU6sfABgHCjjmjOWmAADjLXkwM98sOQVg3CjgGDnLTQEAyCqI5MGUblZAADBuFHCMVJn1ZrkpAMD4KoctJAcaiAVgHCngGImJs95SvFluCgAwXiYetqB8A2BcKeAYurKx7uCsN6daAQCMl5RvJROmeDMYC8A4U8AxVNnbY3BjXUELAGD8lAFZhy0AwB8p4BiKsryg7O1hrzcAgPE0cUBWJgQABRxDMPGgBXt7AACMp+z/OzggaxsSAPgjBRyzMnjQgiWnAADjK5kwA7Mp3wzIAsBNKeCYkcFNdctBC5YXAACMJ+UbAKyfAo5py74eKd/CrDcAgPGmfAOADVPAMWUOWgAAYJDyDQCmRgHHlJSj5B20AABAlPLt8MMPlw0BYAMUcGxQSrfBo+QtOQUAGG+D5dvy5cubqwDAuijgWK/s91bKN0tOAQBINlS+AcD0KOBYp4n7vQEAMN6SD7M6QvkGANOjgONmymELJVzZ0wMAAOUbAMycAo6bSPmWPT0SrhKshCsAAEo+VL4BwMwo4PiThKpy0mlmvSVgAQAw3rIncPZ8y7YkyjcAmBkFHLWUbllWUE46ddgCAADJiGVPYNuSAMDMKeBw0ikAADczcYAWAJg5BdyYS6hy0ikAAIPKoVzKNwAYDgXcmHLSKQAAkymHckX2fEsJBwDMjgJuDDnpFACAdSk50b7AADA8CrgxMzjzLaHKSacAABSDOVH5BgDDo4AbI2XmWx6FKgAABpWZb2V/YABgeBRwY2Jw2anyDQCAQTkV/9hjj60z4pFHHtlcBQCGRQE3BpRvAACsy+Cst2RFAGD4FHA9p3wDAGBdkhWz71tOOlW+AcDoKOB6TPkGAMD6JCuGU/EBYLQUcD2lfAMAYH2ceAoAc0cB11PKNwAA1iU5MV/JibIiAIyeAq6HjGYCALAu9n0DgLmngOsZ5RsAAOtj3zcAmHsKuB4p5VvClPINAICJDNYCwPxQwPXEYPl2+OGHN1cBAOCPkhXzleJN+QYAc0sB1wPKNwAA1se+bwAwvxRwHVdOO1W+AQCwLvZ9A4D5pYDrsGOPPbb+yhIC5RsAAJOx7xsAzD8FXEclRGUkMyHKMgIAACaTzJgv+74BwPxSwHWQPTwAAJgKmREA2kEB10H28AAAYENSvoXMCADzTwHXMfbwAABgQ8rS06OOOkpmBIAWUMB1yLJlywQpAAA2KCsmsvT0yCOPbK4AAPNJAdcRg8WbIAUAwLqkfMuewZaeAkB7KOA6IOVblp6mfLOBLgAA65LceOyxx1aHH364FRMA0CIKuJYbPPHUKCYAAOuTLUtCbgSAdlHAtdzgiacp4QAAYDJlv2ArJgCgfRRwLebEUwAApmJwv2C5EQDaRwHXUk48BQBgqiw9BYB2U8C10GDx5sRTAADWJ4cuJD/asgQA2ksB10LZ9y3hyf4dAACsTw7sSnbMwG1OPgUA2kkB1zLZ9y1ByvIBAAA2pBzYZdUEALSbAq5FsnTAvm8AAExFWXoqOwJA+y248Q+a552wYMGCXp4Kmllve+21V7309Mwzz2yuAgAwKiV/dTVb5t89ZEcAaD8z4FqiLB+w9BQAgA3J7LcUiJaeAkA3KOBawPIBAACmY9myZXVudPACAHSDAm6eDZ5cZQQTAIANSflm9hsAdIsCbp45uQoAgOkoqyasnACA7lDAzaOMXmbpafZ9E6AAANgQg7cA0E0KuHkyuOebvTsAANiQLDvN3sHJjgZvAaBbFHDzJLPfwqmnAABMhdlvANBdCrh5UJaenn766dWee+7ZXAUAgMklO+Yrs9/kRwDoHgXcHBtcemrpAAAAU1FWT5j9BgDdpICbY1k6kFHLzH4DAIANKbPfMohr9hsAdJMCbg6lfMvmufZ9AwBgqsx+A4DuU8DNkYxaOrUKAIDpSH5MjjSACwDdpoCbI0YuAQCYrmTILDvNIC4A0F0KuDlg3w4AAKYrs9+yfYkBXADoPgXcHCgHLwhPAABM1YoVK+pHs98AoPsUcCNWRi7t2wEAwFTZ+w0A+kUBN2KZ/ZZDFxy8AADAVJn9BgD9ooAboZRvYekpAABTVfYPVr4BQH8o4EYky06zdCDByew3AACmqsx+M4gLAP2hgBsRs98AAJiJMojr9HwA6A8F3AiUZQNHHXWU4AQAwJSVQdylS5fWjwBAPyjgRmDZsmX1o9lvAABMhy1MAKCfFHBD5sh4AABmIjkyzH4DgP5RwA1ZZr9lxNKpVQAATEfJkWa/AUD/KOCGKKEpp59aegoAwHRk9ltypNlvANBPCrghSWDKoQtGLQEAmK4VK1bUj1ZRAEA/KeCGpJxYZe83AACmo5ygL0cCQH8p4IaghKaMWO65557NVQAA2LBygr7ZbwDQXwq4IShLBuz9BgDAdGQbkzKQCwD0lwJuCLJprtlvAABMV5n9ZiAXAPpNATdLZe83J1YBADBdmf2WA7wM5AJAvyngZqnMfnPyKQAA05EcmSWoBnIBoP8UcLOQ0BRCEwAA07Vy5cr60f5vANB/CrhZyJ4dmflm9hsAANNVVlIAAP2ngJshSwYAAJgpKykAYLwo4GYos9+yWa5RSwAApmvFihX1o5UUADAeFHAzUGa/OS4eAICZyOmnBnIBYHwo4GagjFgKTQAATFdZfmowFwDGhwJumjJama+jjjqquQIAAFNXDvLKdiYAwHhQwE1TAlPYMBcAgOnKQK6DvABg/CjgpiFhqezXYcQSAIDpcvgCAIwnBdw0lNlv9usAAGAmsv+bwVwAGD8KuGkQmAAAmKly+MKSJUvqRwBgfCjgpsjebwAAzIaT9AFgfCngpiinnmavDvt1AAAwE2UvYQBg/CjgpqAsFzD7DQCAmZAnAWC8KeCmYOXKlfWjEUsAAGbC6acAMN4UcFNQDl8AAICZsPwUAMabAm4DLBcAAGA2nH4KACjgNsByAQAAZsN2JgCAAm4DLBcAAGA25EkAQAG3HsuWLasfjzzyyPoRAACmI8tPf/Ob31h+CgBjTgG3HglMWXq65557NlcAAGDqVq1aVT/azgQAxpsCbh2yVCCjlQ5fAABgpsoBDAZ0AWC8KeDWweELAADMVgZ07f8GACjg1qFslmu0EgCAmSiz36yoAAAUcJOwWS4AALO1cuXK+tGKCgBAATeJEpYsFwAAYKYyqCtPAgChgJuEsAQAwGyU5adWVAAAoYCbwF4dAADMluWnAMAgBdwETj8FAGC2HOgFAAxSwE1QwhIAAMyUA70AgEEKuAFl+emRRx5ZPwIAwHSVTGlFBQBQKOAGLFu2rH60VAAAgJkqW5rIlABAoYAbkKUClp8CADAbtjQBACZSwDUcFQ8AwGzJlADAZBRwjXJUvNFKAABmy/5vAMAgBVzDUgEAAGarDOra/w0AGKSAazgqHgCA2TKoCwBMRgH3B46KBwBgGDKoa/YbADCRAu4PLBUAAGC2yqDu4sWL60cAgEIB9wcJS5YKAAAwGw71AgDWZewLOEfFAwAwDNn/zZYmAMBkxr6AKyOVwhIAALNh/zcAYF3GvoDLSGWCkrAEAMBMWVUBAKzP2BdwGak0+w0AgGGQKwGAyYx1AWekEgCAYXCqPgCwPmNdwDmpCgCAYci2JjIlALAuY13ACUoAAAxDtjWxqgIAWJexLuAEJQAAZqtsa2L/NwBgXca2gBOUAAAYBvu/AQAbMrYFnKAEAMAwZFsTg7oAwPqM9Qw4+78BADBb2dbEoC4AsD5jWcBllDLs/wYAwGyUbU3kSgBgfcaygMsoZVgqAADAMMiVAMD6jGUBZ/83AACGQa4EAKZibJegGqUEAGC27P8GAEzF2C5BFZQAAJit5EoDuwDAhoxdAVf2f7NRLgAAs2VgFwCYirEr4MoJqEYqAQCYjZIrFy9eXD8CAKzL2BVwZaNcAACYjbKywsAuALAhY7kHXFgqAADAbDgBFQCYqrFcgnr44Yc3vwIAAACA0RrLQxiMUgIAMFsGdgGAqRqrAu7YY4+tH22UCwDAbJU94AAANmSsCrhVq1bVjzbKBQBgNsoJqEuWLKkfAQDWZ6wKuDJKaQkqAACzIVcCANMxVgWcfToAABiGsrJCAQcATMVYzoADAIDZMAMOAJiOsSngygEM9ukAAGC2srLCvsIAwFSN1Qy4EJQAAJitzIAz+w0AmKqxKeBWrlxZPwpKAADMRll+amUFADBVY1PAOYABAIBhSK4EAJiOsSngHMAAAMAw2doEAJiqsSjgyiilZQIAAMyWrU0AgOkaiwLO7DcAAIZJ+QYATMfYLEENywQAAJitrK5QwAEA0zEWBdyqVavqR0EJAIBhkCsBgOmwBBUAAKZBtgQApmtsCjijlAAADItsCQBMx9gUcPZ/AwBgtsrp+osXL64fAQCmwhJUAACYopIrzYADAKZjLAq4EJIAABgW2RIAmI7eF3CWCQAAMCzldH0AgOnofQFnmQAAAMMiWwIAM2EJKgAATINcCQBMV+8LuJUrV9aPghIAALOV7U3kSgBgusZmBhwAAAyDAg4AmK6xOIThgQ98YPMrAACYubIHHADAdIzFDDijlAAADItsCQBMV+8LOKOUAAAMQ1ZWxOLFi+tHAICp6nUBV8q3JUuW1I8AADBTJVuaAQcATNdYFHAAADAsCjgAYLrGooATkgAAmK1Vq1Y1zwAApqfXBVwJSQo4AABmy+AuADBTZsABAMAUyZUAwEz0uoALIQkAgGHI4K5sCQDMhEMYAABgCmRLAGCmzIADAIApki0BgJkwAw4AAAAARqj3M+AAAGAYDO4CADNlCSoAAAAAjJAlqAAAMEUGdwGAmbAEFQAANsDALgAwG5agAgDAFC1evLh5BgAwdWbAAQAAAMAI9baAs0wAAIBhkS0BgNno/Qw4ywQAAAAAmE9mwAEAwAaUbGl/YQBgJuwBBwAAAAAj1PsZcEYpAQAYFtkSAJgJM+AAAAAAYIR6X8AZpQQAYLZWrVrVPAMAmD4z4AAAYIoM7gIAM9HbAs4oJQAAAABtYAkqAABsQDngCwBgJnpbwAlJAAAAALSBPeAAAGAKrKwAAGZKAQcAABtgdQUAMBu9LeAyQvnABz6w+RUAAMycbAkAzMaCG/+ged4JCxYsqE4//XQBCACAWcmstr322ku2BABGzhJUAAAAABghBRwAAAAAjJACDgAAAABGSAEHAAAAACOkgAMAAACAEVLAAQAAAMAIKeAAAAAAYIQUcAAAAAAwQgo4AAAAABghBRwAAAAAjJACDgAAAABGSAEHAAAAACOkgAMAAACAEVLAAQAAAMAIKeAAAAAAYIQUcAAAAAAwQgo4AAAAABghBRwAAAAAjJACDgAAAABGSAEHAAAAACOkgAMAAACAEVLAAQAAAMAIKeAAAAAAYIQUcAAAAAAwQgo4AAAAABghBRwAAAAAjJACDgAAAABGSAEHAAAAACOkgAMAAACAEVLAAQAAAMAIKeAAAAAAYIQUcAAAAAAwQgo4AAAAABghBRwAAAAAjFDnCrg999yzeQYAALMjWwIAc2HBjX/QPAcAAAAAhswSVAAAAAAYIQUcAAAAAIyQAg4AAAAARkgBBwAAAAAjpIADAAAAgBFSwAEAAADAyFTV/w9k8+k6WLvshAAAAABJRU5ErkJggg==;" vertex="1" parent="1">
          <mxGeometry x="17" y="300" width="804.67" height="530" as="geometry" />
        </mxCell>
        <mxCell id="9EUehRZK9THw3qdOtHzu-1" value="" style="shape=image;verticalLabelPosition=bottom;labelBackgroundColor=default;verticalAlign=top;aspect=fixed;imageAspect=0;image=data:image/png,iVBORw0KGgoAAAANSUhEUgAAA5YAAAHMCAYAAACugTfGAAAAAXNSR0IArs4c6QAAAARnQU1BAACxjwv8YQUAAAAJcEhZcwAAEnQAABJ0Ad5mH3gAAFgUSURBVHhe7d0JtB1VmfbxuhCSAGGUIUxJB4EgBIEACgESoW0VB0BRREFQcUlrt7a27fwpspYD4NJubbtp0ZaOYNuIggFtQaYOg0GIMoV5MhMJCIFIIGEI97vPTr3hTXHOvWeouf6/tfa6lUpyzzl16tTZT727dg0MDokAAAAAAOjRevFPAAAAAAB6QrAEAAAAAPSFYAkAAAAA6AvBEgAAAADQF4IlAAAAAKAvBEsAAAAAQF8IlgAAAACAvhAsAQAAAAB9IVgCAAAAAPpCsAQAAAAA9IVgCQAAAADoC8ESAAAAANAXgiUAAAAAoC8ESwAAAABAXwiWAAAAAIC+ECwBAAAAAH0hWAIAAAAA+kKwBAAAAAD0hWAJAAAAAOgLwRIAAAAA0BeCJQAAAACgLwRLAAAAAEBfcgmW//Vf/xUvAQAAAADqJpdgOXPmzHgJAAAAAFA3uQTL//u//wsNAAAAAFA/mQdLGwY7e/bs8BMAAAAAUC+ZB0sbBst1lgAAAABQTwODQ+LlTAwMDMRLUXT11VdHr3vd6+I/AQAAAADqINOKZbJK+ac//SleAgAAAADURabBMnldJbPDAgAAAED9ZBoskzPBUrEEAAAAgPrJNFgmg6T+zG1HAAAAAKBeMguW7WaB5bYjAAAAAFAvmQXLdtdTctsRAAAAAKiXzG434m8zksRtRwAAAACgPjKpWI5UlWQSHwAAAACoj0yC5UjXUXLbEQAAAACoj0yC5Ugzv1KxBAAAAID6yCRYjhQcue0IAAAAANRH6sGy01lfue0IAAAAANRD6sGy0+snue0IAAAAANRD6rcbGe42I0ncdgQAAAAAqi/VimW3VUgm8QEAAACA6ks1WHZ73SS3HQEAAACA6ks1WHY70ysVSwAAAACovlSDZbdBkduOAAAAAED1pRYse53llduOAAAAAEC1pRYse71ektuOAAAAAEC1pXa7kW5uM5LEbUcAAAAAoLpSqVj2W3VkEh8AAAAAqK5UguVw10laJVI//+qv/iosJ3HbEQAAAACorlSCZbuZXf0QV4VK/blVuKRiCQAAAADVlUqwbBUMW1032S5cctsRAAAAAKiuvoNlq+srh5uMp1245LYjAAAAAFBNfQfL5PWRw4VK0ypcctsRAEBW9B2j2cvVGCEDAED6+g6W/gu6k1BpkuGS4bAAgKyccMIJ0apVq0Lr9HsKAAB0rq9g6auM3YRK0ypcAgCQtlGjRkVjxowJDQAApK+vYGnXRfYSKo0Pl9x2BAAAAACqp69gqaGr/YRKY+ESAIAscI0lAADZ6itYnnPOOaldq6Jwqd/HcFgAQFr0naLmZx7XMuESAIB09RUs054AQeFSDQCAfpx22mnRYYcdFk2aNCk0PyfAV77ylfB3ql7q7/RvAQBAf/oKlgAAlImqkwqNCo+dVCX17/VvFTCpYgIA0DuCJQCgFlR5TAZEhUY1Xcc/ODgYPfTQQ6Hp0ov3v//98b96KZBSvQQAoDcESwBA5VmV0ig0KkieeuqpoT3zzDPRwQcfHB1//PHRE088Ef5e4VIh0/8/q14CAIDuECwBAJWmUGlVSptlXKHRe/TRR6Pf/e53oS1fvjxeu+bfK3gqYNo1/qpefuADHwjLAACgMwRLAEBlJUOlAmKrieU22WSTUIlUGzt2bLz2JRZILVxqsh/CJQAAnSNYAgAqqVWobOeYY46JHnzwwdAOPPDAeO26CJcAAPSOYAkAqJxuQmU3CJcAAPSGYAkAqBTN3NptqLztttuir33ta6HNnz8/Xttaq3DJbLEAAAyPYAkAqAwFSj+LqwJgJ/74xz9G/+///b/QOgmiFi6NwqWFWQAA8HIESwBAZfhhqb6qmAX9bptdlpliAQAYHsESAFAJuq5SAU90H8pWs7+28/a3vz268847Q3vNa14Trx2ZHkdNCJcAALRHsAQAlJ6GofrrKpP3qRzJZpttFr3qVa8KbaONNorXdkb3ufTXW6oBAIB1ESwBAKWmSqGqlabbUCmPP/54uM5SbcWKFfHaziSvt9REPlY5BQAAaxAsAQCl5oefauKebobAmksuuSTab7/9Qps7d268tnMKlzZpkEIls8QCALAugiUAoLT8EFgFSg1LLcpJJ520NtT65wUAAAiWAIAS85XBfkLlAQccEH3rW98KbZdddonXdkdVS3sOVC0BAFgXwRIAUEr+3pHdzgKbtOeee0b/+I//GNqOO+4Yr+2engNVSwAAXo5gCQAopbSqlWnzkwdx+xEAANYgWAIASsfPvKpJc+x2H706//zzo/Hjx4f2u9/9Ll7bGybyAQDg5QiWAIBSUViz4Oava+zHypUro0ceeSS05557Ll7bO03kY2FXQ3YtBAMA0FQESwBAqfgKYC/3rGxl++23j17/+teHtsUWW8Rre8dEPgAArItgCQAoDYU0VQDFT5TTrze84Q3R5ZdfHtree+8dr+1PciIfqpYAgCYjWAIASqOsE/a0oqqlhsQKVUsAQNMRLAEApZFFtVKuu+66MIOr2t133x2v7R9VSwAA1iBYAgBKwd+6wyqBabn//vtDaFVbunRpvLZ/VC0BAFiDYAkAKAWrViqsvf/97w/LVaCKpc0Qq6olAABNRLAEABTOVyuzuLbyxBNPjJ599tnQZsyYEa9NR3KGWP9aAABoCoIlAKBwWVcr11tvvWj06NGhDQwMxGvTQ9USANB0BEsAQKGyrlaKKokXXHBBaH/+85/jtemhagkAaDqCJQCgUFatlKyurVQV8dhjjw3tjjvuiNemi6olAKDJCJYAgML4UHnOOefES9Xkh/GqaulfGwAAdUewBAAUxt+eI8uZYA8//PDol7/8ZWhTpkyJ16bP3yaFW48AAJqEYAkAKIQqeqrsSda3F5kwYUJ01FFHhbbVVlvFa9OnqqWGxIpeG0NiAQBNQbAEABRi5syZ8VJ2k/aY559/PlqxYkVoq1evjtdmw78WqpYAgKYgWAIAcuereapW2qQ3WfnJT34SbbLJJqFde+218dpsqGLpq5ZWlQUAoM4IlgCA3PlKnr8usS78rUeoWgIAmoBgCQDInc2Y6q9JzNLkyZOjU045JbTtt98+XpsdvS6rwnKdJQCgCQiWAIBc+dtwZH1tpTnooIOi//iP/whtt912i9dmR6HSVy259QgAoO4IlgCAXOV1i5Gi+Uosw2EBAHVHsAQA5CbPW4x4v/nNb6Lp06eHdvPNN8drs6Wqpb1GvWaGxAIA6oxgCQDIzezZs+Ol/IbByiOPPBJmg1Vbvnx5vDZ7fmIif3sVAADqhmAJAMiNXWuoYaI2uU0exo0bF02YMCG0sWPHxmuz5289QsUSAFBnBEsAQC78BDZ532Lkne98ZzR//vzQDjzwwHhtPuy1MokPAKDOCJYAgFw0ZdKeJD+JD8NhAQB1RbAEAGROw0CLmLTH3H777dHpp58e2oIFC+K1+dCQXz8cliGxAIA6IlgCADLnK3V5D4OVP/zhD9HnP//50B588MF4bX78REVULQEAdUSwBABkzk/a44eGNoV/3VQsAQB1RLAEAGSqyEl7zFFHHRWGw6odcMAB8dp8WbDknpYAgDoiWAIAMuWHfhZVrdxiiy2iKVOmhLbxxhvHa/PlQ7WfyAgAgDogWAIAMuMnq9GkPXneu9JbtmxZdOutt4a2YsWKeG2+mMQHAFBnBEsAQGaKnrTHXHzxxdE+++wT2ty5c+O1+fOT+MyePTteAgCg+giWAIDM+KpcUcNgy8RXbP21pwAAVB3BEgCQCQWnIu9d6e2///7RmWeeGdorX/nKeG3+FCxtWzCJDwCgTgiWAIBM+KGefghoETRpz6c//enQdtppp3htMfyQYO5pCQCoC4IlACAT/t6VRU3aU0baHn4SHwAA6oBgCQBIXRnuXen97Gc/i3bYYYfQ5syZE68tjgVLhsMCAOqCYAkASF0Z7l3pPfPMM9HDDz8c2rPPPhuvLQ73tAQA1A3BEgCQOqvCFXnvSm+77baLDjvssNA233zzeG1x/D0tbYIjAACqjGAJAEiVHwY7Y8aMeKlYb3zjG6OrrroqNN3Lsgysaqlgya1HAABVR7AEAKTKD+0s+jYjZeaHCDM7LACg6giWAIDUaAhsWe5d6V1//fXRhz70odDuueeeeG2x/HBYbTcm8QEAVBnBEgCQGl95K8NssOa+++6L/vM//zO0JUuWxGuL5+/v6e/7CQBA1RAsAQCp8VW3MswGW3Z+YiOuswQAVBnBEgCQCgWjMg6Dlfe9733RypUrQ5s+fXq8tngKlratuKclAKDKCJYAgFT4oZx+iGcZrL/++tHYsWNDW2+9cn31+SHDDIcFAFQVwRIAkApfbSvDvSu9+fPnRxdeeGFojz32WLy2HDRk2IYNMxwWAFBVBEsAQN/KPAxWrr766uiYY44Jbd68efHa8rBgyXBYAEBVESwBAH0r8zDYKpgxY0a8xD0tAQDVRLAEAPTNqmwaAlu2YbBy2GGHRb/4xS9CmzJlSry2PPxwWCqWAIAqIlgCAPrih8GWtVo5ceLE6B3veEdoW221Vby2XBgOCwCoMoIlAKAvfhishaOyWb169drbjbz44ovx2nLxs8MyHBYAUDUESwBAX2wmU4XKMg6DlXPPPTfaaKONQrvmmmviteWibcdwWABAVREsAQA987fH8BU39IbhsACAqiJYAgB6VoVhsLLbbrtFH/rQh0Lbbrvt4rXlw3BYAEBVESwBAD2ziqXuXVnWYbAybdq06Ac/+EFokydPjteWD8NhAQBVRbAEAPTED4P192FEfxgOCwCoIoIlAKAnVRkGK5deemm4l6XaLbfcEq8tJz8c9rTTTouXAAAoN4IlAKAnVRkGK0uXLg3VP7Unn3wyXltOfjis3R8UAICyI1gCALpWtWGwG2+8cbTDDjuENmbMmHhteTEcFgBQNQRLAEDXqjQMVt71rndFixYtCu2ggw6K15YXs8MCAKqGYAkA6FqVhsFWEbPDAgCqhmAJAOhKFWeDnTdvXnTmmWeGtnDhwnhtuTEcFgBQJQRLAEBXqjYMVubOnRt99rOfDe2BBx6I15Ybw2EBAFVCsAQAdIVhsPlgOCwAoEoIlgCAjlVxGKwceeSR4f6Vavvvv3+8tvwYDgsAqAqCJQCgY1UcBitbbrlltPfee4c2bty4eG35MRwWAFAVBEsAQMesYqlQWaVhsE888USYwEft6aefjteWH8NhAQBVQbAEAHTED4P1lbQqmDVrVrTXXnuFdtNNN8Vrq4HhsACAKiBYAgA6UtVhsFXnr2VlOCwAoKwIlgCAjli1rGrDYGW//faLvvGNb4S28847x2urQdub4bAAgLIjWAIARqRhsBqKKVW8xYiGwH7uc58LbcKECfHa6mA4LACg7AiWAIAR+WGwp556aryEvPjhsP69AACgLAiWAIAR+SpZFSuWF1xwQahUqt1www3x2urww2H9JEoAAJQFwRIAMCw/DPb9739/+Fk1usXIwoULQ1u1alW8tloYDgsAKDOCJQBgWH7oZdVuM2LGjx8fTZ8+PbTNN988XlstDIcFAJQZwRIAMCxfHbOqWdW86U1vCmFMbZ999onXVosfgsxwWABA2RAsAQBtKVRWfRhsXShYMhwWAFBWBEsAQFv+hvxVHQYrc+bMiU455ZTQ7r333nht9fgZeRkOCwAoE4IlAKCtOgyDlXvuuSc6++yzQ3v44YfjtdXjh8NSsQQAlAnBEgDQFsNgy8UPh1WwJFwCAMqCYAkAaMlPEONnJK2iE044IVqxYkVohx56aLy2mvxwWAv+AAAUjWAJAGjJX19Z9YrlqFGjoo033ji09ddfP15bTX44rH+PAAAoEsESANCSDbOswzDYBQsWRLNmzQrtsccei9dWU3J2WAAAyoBgCQB4mToNg5WrrroqOvroo0ObN29evLa6bIZebjsCACgLgiUA4GXqNAy2jvwMvaeddlq8BABAcQiWAICXqdMwWFEQ+9nPfhbannvuGa+tLobDAgDKhmAJAFhH3YbBioLYu971rtC23nrreG21MRwWAFAmBEsAwDpmz54dL6075LLKXnzxxei5554LbXBwMF5bbQyHBQCUCcESALAOq1hqGKy/tUWV/fjHP47GjBkTmg/OVcZwWABAmRAsAQBr1XEYbJ35YMlwWABAkQiWAIC16jgMVnbdddfoAx/4QGjjx4+P11afXWcpfiZfAADyRrAEAKxlVS+FyroMg5WDDz44+tGPfhTa7rvvHq+tPj8cloolAKBIBEsAQKBhsHatXp1CZd0xHBYAUAYESwBA4IfBnnrqqfFSPVx22WXR61//+tBuvfXWeG09+Gth6zIxEQCgegiWAIDAV7vqVrFcsmRJdOWVV4b2xBNPxGvrwb9XfvIlAADyRLAEAIRQacNgdZuRutlwww3DpD1qo0ePjtfWg7/OkuGwAICiECwBAOsMofQzjdbFu9/97lC1VJs2bVq8tj780GWGwwIAikCwBACsM4SyTrcZaQo/HJaKJQCgCAODQ+LlTJx22mnRV77ylTC06pxzzonXAgDKZGBgIPys4rHahn/Onz8/LNuQ3uRPzwcxW7afmgzHDy+tisMOOyxsBz33hx56KF4LAEA+CJYA0HCqVn7gAx8IyzpOl/UaSx8g9dOHyKz4gKnAWebrT7VNFC6lzO8jAKCeCJYA0HBW6ZKMvxK6puA4c+bM8PzsOQ4nWX20nxZKxQcuH0w7Car6fWq6DlU/y1TV1HOfNGlSWNbzuvrqq8MyAAB5IFgCQMOVbRisApLCpCqp7YKeBTxfTRwu5C1btixUOmXXXXeNxo0bF5aT7PEUQjUJjv5srRV7DgqaZQiZDIcFABSFYAkADVaWYbAKbgqT+r5oRUFJz22kAJkVPT8Lm+3uFWnP0c/Qmjf/fqpiWYawCwBoBmaFBYAG87emKCqw6QSkhnAmQ6WCmtap8qamwNbrc1y+fHl01113hfbMM8/EaztnoVHhW+dj9Xz03Pzz0WvROr0WhbtOhu6mzT8fbVcAAPJCsASABrPqm0KTwlNeLEwmA6WFSQtvCpNpPK+LLroo2mOPPUK78cYb47W903PSc1NVUM9TgdNCnQKmtquGper1tatwZkHPyz8PAADyQrAEgIbygUdDTPOgQKlrOhUeffBRsPWVySpRmNPzt5CpZaPXqOqlAmZeFUQfLIuomgIAmolgCQANlecwWAWc4aqTqvilUZlsZ+rUqdFXv/rV0PQ8sqLXoNeigOlfq0Ke/pxHBVMTCRldtwoAQB6YvAcAGkohR4FHYUhBKAtWsfOVM6vwVa0y2QurGuq7UMvGAmhWgZ7ZYQEAeaNiCQANpKqZBZ0swo0FSoVXC5UKOTrRWMXhrr2yEK1hsskKpsKftpEPnGlhOCwAIG8ESwBoID8MNs2QpyBjE/P4IZ9FB8qf//zn4Tmp3XDDDfHa/Chg6rUnh8hqGylgpn39pb9m1r/XAABkhWAJAA2UHJqaBv1OBTcfnFQ5K0OFcsWKFSH0qq1atSpemz8fMG2SHz0nbTNf3e2Xf0+zvqYTAAAhWAJAAynMiJ/BtB+quKnyZhRsNPxTLa3g2o9tt902Ovjgg0PbbLPN4rXF0TaxSX78sFUNjU2jeqnfz3BYAECeCJYA0DC+guVnEO2FQkuySmnDXrO4drNXRxxxRHTdddeFtu+++8Zri2cB07afr15a+O+VrxIzHBYAkDWCJQA0jK+I9RP+7FpKC0AKSWUY9lo12m42PFbLom3a77WX9ruEiiUAIGsESwBoGAuCvQ6DtdDTqkrpw0yZaMKej370o6Hde++98dpy0bbzs8dqO/dTvdTv88NhAQDIEsESABrED4P1M4d2yqqUVgGzMFT2KuXdd98dnXXWWaE9/PDD8dry0fZMs3ppQ531O6haAgCyRLAEgAbx19p1W7HUxDKtqpRlupayLtpVL7sNl/696WdYLQAAIyFYAkCDWMWym1BpFTP7v1WpUnrHH398tHz58tAOOeSQeG25tapedjs0Vv+P4bAAgDwQLAGgIXoZBqvhk37oq0JKFauUG2ywQbTpppuGNmrUqHhtNViQt3BpQb/ToOiDJcNhAQBZIVgCQEP4YbCdBEMFUQUYoyqnAk4VLVy4MLrkkktCe/zxx+O11WHh0g+N7fS6S39LmZkzZ8ZLAACki2AJAA1h1SoFRKt+taPrKdWM7rWoVlVXXnlldOSRR4Z2++23x2urRe+ZhsZ2e92l/p+dSKBiCQDICsESABpA1UcbOjncMFirhCWvp+z11iRIXy/XXTIcFgCQNYIlADRAJ8NgFTqStxKpy6yvCtM//elPQ9tjjz3itdVlgd/CpZ0QaBcu/ckEvy8AAJAWgiUANICvUlkY8fT3CpVGFUqFyrrQazvuuONC22abbeK11WbhMnndZatw6U8O+EmcAABIC8ESAGpOodHCRqshrfp7P0mPgkqVr6dsZXBwMFq9enVoWq4LhcvkdZd6L/2JBGPvvf5Nq78HAKAfBEsAqDk/E6ifIVSSoVKBskr3p+yUtoFuM6JWx6GgyXCpiZeSk/r4957hsACAtBEsAaDmfHUqOSTSh0om6am2ZLjU++vDpR8CTcUSAJA2giUA1FyrYbAKHP52IgqVdZikp51ddtklOvHEE0MbP358vLZ+FC5tGLPedwVNC5cKlvYeEywBAGkjWAJAjfmJWmxmUAVKq2zZBDB1DpVyyCGHhOGwarvvvnu8tp6SEy/5cOmHOTOJDwAgTQRLAKgxf32lAoeGvlqgUKhUdavuobKJ9N4m73WpEwr2Z/H7BgAA/SJYAkCN2ZBHC5X2ZwseTQmVl19+efTGN74xtNtuuy1eW296j/29Lu2aS3vPbYg0AABpIFgCQE35oY5atlCpYFGne1R2YvHixdFvf/vb0JYtWxavrb9W4dL2AwVLrrUEAKSFYAkANdXqlhIKlQoaTTN27Nho6623Dm306NHx2mZIhkvPzxoLAEA/CJYAUFO+YilNDZVy3HHHRY8++mho06ZNi9c2R7twyXBYAEBaCJYAUEOESiS1CpcMhwUApIVgCQA15Gf8tEDRZHfeeWf0L//yL6EtWrQoXts8rcIls8MCANJAsASAmvGzv0rTJupp5cYbb4w++clPhnb//ffHa5spGS5V3eZaSwBAvwiWAFAjyVCp24wASQqVft/QfS4JlwCAfhAsAaAmdAP85PVyJ510UrzUbG9729uim266KbT99tsvXttsM2bMiJfWIFwCAPpBsASAGlCoTE7YI3Yz/KZ7xSteEe2///6hbbLJJvHaZvPXWRrCJQCgVwRLAKg4BQELlT4sMAz2JX/5y1+ie++9N7SVK1fGa5tN+0qrEw+ESwBALwiWAFBhGvqqICDJoJAc6thkF154YTR58uTQfv/738drceqpp8ZLa05E2IkJJvQBAHSLYAkAFaVQqcl6zDnnnLPODe+pWGIkvsKtfcduS6NlhcvkNbsAALRDsASACkqGSgUCVSstCBAq17XvvvuGCpyaD1NN56vcCpP6s05Q2J917a4/WQEAQDsESwCoGHX0W4VKP3kPw2DXtffee0df/vKXQyNYrstmDtZ+pRMTOinhw6X2NcIlAGAkBEsAqJBkqFQAsIrT7Nmzw0/x11oCw/H7il1XqXBp1+4SLgEAnSBYAkCF+KGJ6vj7Ia9WsdQ6qnLr0uQ9u+yyS2hM3rOu5HBYo4l9kuESAIB2CJYAUBHq2Ns1lAoCfkZPhsEOT7cbeeCBB0LjdiMv54Oln7BHw2R9uNSJDQAAWiFYAkAFJEOlzd5pGAY7vK233jo68MADQ9t0003jtTB2naXMnDkzXlpTzdTf2T6lExiESwBAKwRLACg5deSHC5ViFUv9PcNgX+4tb3lLNGfOnNCmTp0ar4Xxw2F9xVL0d/5aXu1r3OMSAJBEsASAElMH3kKjOvjDhUrxlSegGxYck8NhxcKlnbTQ8FjCJQDAI1gCQEmpc2/Xt7ULlcIw2JFpwp6Pfexjod13333xWnj+2ly/T5nkPqgTGskACgBoLoIlAJRQchZOXy1K8p37dv+m6e66667oe9/7XmiLFy+O18LTSQk/3LUVHy5tMh/9BACAYAkAJZMMlerIt6tEKgBYx97fegTohZ2Y0D7VrhqpfVEnOiS5rwIAmotgCQAlk7xX5XDDW/2QRa6vbO+9731vtGzZstAOOeSQeC2S/D7Uajis0UkM7nEJAPAIlgBQIsnbivh7Vbbiq0rDBdCmGz16dLTFFluENmrUqHgtkvxQ6nbDYY2/DYn2Q25DAgDNRrAEgJLQLJs+VLabrMeoUmSVTYbBDm/RokXR//7v/4b2+OOPx2uRpGBpYVH7VrvhsKJ/66/9VRBlplgAaC6CJQCUgDrwncwA6/lOP8Ngh3fFFVeEe1mq3X777fFatOKr5MMNhxXbV324HC6MAgDqi2AJAAVTRzw5A2wnfHWIYbBIi4VE6SQk+hMhqnIyUywANBPBEgAKpA54pzPAJjEMtnPTp0+PfvKTn4T2qle9Kl6LVhQU/XDYTuj/JGeKJVwCQLMQLAGgQH7Ck5FmgPX8xCr+xvZobeeddw4zw6ptu+228Vq0Y0OrFQ47HdrKTLEA0GwESwAoSLczwHozZ86Ml6hYIn3+BEc3E/JoH7b9UeGSmWIBoDkIlgBQgG5ngE2y/0uo7IwqvAMDA6F1WoFrsl6GwxqFS/u/zBQLAM1BsASAnCnYdDsDrMcwWOShl+GwYtdb6qcwUywANAPBEgBylLz2rNMZYD1/Cwg/ZBHt6RrL448/PjSusexMr8NhxZ8wsSGx3VY+AQDVQrAEgBz5a866mQHWs4qlhsFaVQjD06yw5513XmjMCtsZ7Vu9DocVq1xK8oQKAKB+CJYAkBM/WU83M8B6DINFnnyw7GU4a3KmWCbzAYD6IlgCQA6Sk/V0MwOsxzDY3lxxxRXRm9/85tBuu+22eC1GYtdZip+JuBv6HbavMpkPANQXwRIAMqZA2c9kPZ4PpwyD7dyiRYui3/zmN6EtW7YsXouR+OGwvVQsxYbE2v7KZD4AUE8ESwDIUPLasl4m6zHqkNu1blQruzNmzJhoyy23DG2DDTaI16ITtq/1OhxWLFyKDYm1fRkAUA8ESwDIUBqT9Rg/DNYPUcTI3vOe90SPP/54aAcffHC8Fp3w1/L6fbBb2vf99ZZM5gMA9UKwBICM+Ml61Knut8roq0UMg0Ve/H7rJ4/qha4t1oQ+YpVLAEA9ECwBIAMKgT5U9nNdpfhhsNYxR+fuuuuu6F//9V9DW7x4cbwWnfJhsNfhsEbh0sIqk/kAQH0QLAEgZep42zA/f21ZPxgG25/f//730cc//vHQ7rvvvngtOuX3uX6Gw0ryM8FkPgBQDwRLAEhR8toxPxtmP3zHu98htUC3/D6cRgjU77Mqvg2JtYo8AKCaCJYAkCJ/zZgmKkkrBDIMtj9vectbohtuuCG0qVOnxmvRKQVB25cVLNMIl/p9fjIfrrcEgGojWAJASnStmHW41WnWtWRp8BOm+Bk60bmtt946eu1rXxvapptuGq9FN/z+3O9wWOMn89Fnh+stAaC6CJYAkAJ1iq364of5pcF3tqlY9uapp56K7r///tBWrlwZr0U30h4OaxQu7XdzvSUAVBfBEgD61Oq6yjQxDLZ/v/jFL6Jdd901NE3kg+754bBpXg/pT8TYkNg0fz8AIB8ESwDok782TB3ktK6rFIbBokxsdlgFP79v9kvh0k7IWLgEAFQLwRIA+pC8rjLNUCkzZ86Ml6hY9mOfffYJQy79sEt0z+/fft9Mg/ZvrrcEgOoiWAIpSvMMPsrPX1epDnea11UaC62Eyv4oWOq9UmtasEx72KqFyyyGq3K9JQBUF8ESSIk6QVwb1Bx6n/11leoQpy3NYbB6vlYF8s8bzaBjk1oaQc0Ph007+ClUcr0lAFQTwRJIiVWsGGbXDP4asLSvqzT9DoNVh9yC5KRJk8JPBYEsKqtld9FFF0WTJ08O7cYbb4zXNoOOSTrxof1B+8B2220XfvZaEfT7ehbDVfV8/fWWnAgBgGogWAIpUWdIHS511tSJT/tMPsrDApoo8GURKsU/RifUCdf/UWd/YGAg7Ica+mm/x05+NNHy5cuje++9N7RnnnkmXtscFtYOPPDAaOnSpWGf0MkR7cvaT7qpZtqxTrKqJmqft2HmdoIEAFBuBEsgZepwWUP9qPPtg1ratxYxnQ6DtU63BQT9tA65p+fa1FApW221VXTAAQeEtskmm8Rrm0WB8Kc//WkIl56CpvY37TudVjOzHA5r9Bh2HPUnSAAA5TQwOCRezoQ6PPpC0NnHrDpgQBmpE6QqwEMPPRSvQdWpE63wZvTeqrOeBXXurSPtH0fPQW327NktA2QrTQ+VWJf2n/e85z3RDTfcEK9pz6qTPuSJ/yxkuX/5x9Fz0eNk9ZkDAPSHiiWQEXWIhLPs9ZG8rjLLDq7tNzYMtpOqZCuESiRpv21VuWylXTVTxzcLmnasy4KeK9dbAkA1rD/UOemsd9IjnVVXB0lTvR999NHxWqD+tM9/4hOfCB0jdcT0Z1SXOrQW9mwURla0v8yaNSss33LLLdF3vvOd8NjdduAPOeSQ6Pzzz4/mzp0bjR8/Plq2bFl00003RVtvvXX0l7/8JUxi84pXvCJ6+umno9///vfRFltsEa1atSpUsjbbbLPohRdeiObMmRONGzcu0uCW3/3ud9HGG28crbfeetH1118fjR07Ntpggw2i6667Lho9enT487XXXhuNGjUq/Ltrrrkm/Fv9Ltt2m2++eVi/evXq8Hj6v88++2x4Hvr9uv5Rw1b1HJ566qnwXPU8n3zyyWibbbaJ/vCHP0SPPfZYtO2220Y333xz9Mgjj4TXduutt0YPP/xwCD+33357tHDhwmj77beP7rzzzlDxXbx4cfSFL3whbA99FvU77rnnnminnXaK7r///uiOO+6IJk6cGD344IPRbbfdFj632t7a/lq/aNGi8Hj693qcP/7xj9EOO+wQPfroo+E56Tk8/vjjYVvreer5alvrteh16DVsueWW0cqVK8Nr03bQ69ayhua++OKLa7evro/V9t1www3DttQ2GjNmTGjavtrmG220UdiO66+/frTpppuG71rbvlrW79P21b9//vnnw2Prd+r91ba+++67Q7B84IEHwmtrR/uAWbFiRdgm2jc1sZTtj3qtCplZnWjR+6Vton1IjzV//nz6EwBQRhoKm6WhDpiG2g4OdcLiNUCznHPOOeEzMNS5jdegaq6++urwHqoNdaDjtenTPmLHzDTaUJga/NGPfhSWhwLE4H//93+H5Xnz5g1edNFFYXko/AxeeumlYXkohAwOdd7D8m9/+9vBobAZloeCxOBQ2ArLQ8Fs8N577w3LQwF4cCjAheWzzjprcCisheV//ud/HhwKIWH561//+uBQiAzLX/rSl8LrHApIg5/+9KfD8lDoHPz7v//7sDwUzgZPPvnksDxp0qTB448/Piy/6lWvGnzHO94RlqdOnTp4xBFHhOWDDz54cCjwh+W//uu/HhwKSmH5rW996+Dee+8dlt/1rncNTp48ee3nUE3v54c//OHBodAa/s0//MM/DA6Fu7D82c9+dnAozIVley+ee+65wTPOOCMsDwXywaGgH5aHQu3g2WefHZaHQtbgueeeG5aHQtvgBRdcEJaHwujgr371q7A8FBwHr7zyyrB81VVXDQ4FvbD861//enAoqIbln//854N33XVXWD7vvPPCPqHlH/zgB4NLly4Ny9/97ncHly9fHpbPPPPMwaGAGpZPO+208LyHwubg5z73ubA8bty4wU984hNheSjkDp5yyilheSggD5544onh9+v16v/304ZCZabf83qe+uzZ4+n9BACUCxVLIGOqIFjlUmf49WdUh96zfffdN/7TmiGwWb2H+r2q/NgMmNpnVKHp1ZIlS0JldSiMRfvvv3+oWulY/JrXvCYsD4Wv6LWvfW1Y3muvvcKyqllTpkyJDjrooFBt22OPPaJp06aF5d133z0aCnOhiqjbdqgiquVdd901OvTQQ0Ol7pWvfGU0ffr0UFHceeedw+vRsl6LllVRVAVQy6ooTpgwISzvuOOOoRqoiYq0Tn/W79G/VWVQyxoGrP+jZf1u/S497i677BIeQ89nt912W7us56jnp+es6qBVgbVNtD30uvRa9fr1el/96leHKp+WtW30fqiqp/dfy9pu2pb6N/r/++23X1jWT/1Zy/q3miBI21G/Q/9Hy/rd+l1++2p5zz33DMt6nkMBuuX21WvS69SyXqvfvtpeWta20XZU5dRvXy3r32gbartqWdtZ21fLQ6E6VGl7od+hbad9VNsnyyHX9tlQ9V5UoVafQusBAOXA5D1ATvRZ0BBHfQ7UQUI1+CGw6jhn/d5pH7FrOW1fUbjV0EMNX7QJVzTsVMMaR8Kxdw0FSw1JFQ3N1XDSpvP7dqd0gkD7lEKp9k37jpe8Px96Lg8xORoAlAaT9wA50ayK6pARKqtDHVjreKvznMd7Z9fKiR7PKn0Kh7reUR1pLXcy8Yr4jniT6fpEVV3VCJWdh0pVJbX/af/XeWjtf6eeeuraz4LddkR08iNrOoZakNUJF6vuAwCKR8USyJk6c+roc6a93PQ+qfMt6kRnOczP0yQl0skxUx3rTquZTT8Ga/KeefPmhWUNVdUQzqYaKVQmq5Ijsd+XVwVR+7yd9NFjar/u5HkCALJFxRLImTpF6gyhvPQeWagUVWjyoOqiUad+JN1UM5teubz88sujN73pTaFp1temahUqR6pKjsT+nT43wwXWtFiYFAuZ+gkAKBbBEo3mO/J5USVA1S91hIp4fIzMB7A8rhszyWGw3VKH2/YvhQP91J8taDIsttl8qNS+oiCpfUS3ZtHPXk+g5D0cVlqFSwBAsQiWaCzrZBd1plsdMA0V50x7ueg9sc63wl1eoVLsRIMeUx3nfuj/6/ckq5lN7YRrVtUf//jHoWn21aax97zXquRwbF+TPCqWRidN1ESPy/WWAFAsrrFEo6mTrU6ROiV5BgixQFnU4+Pl9D7YEFi9L+p858VXE3WstA5zFvy+h/qz41yW7Lte8qzy67XpM2uvUZ8djqUAUAwqlmg0dUTUIVKHPs8z7aLHVtNjq1lnH8WxYCd5nwjrdxhsN2zfQzPk8V77a4LzGg4rem0KsqJjqP8MAwDyRbBE4xV9GxANR1Ojo18sq3qIKi957w/+xAb7QvoUdkaNGhWaD/FIhz4v9pkp4iSdVUsJlwBQHIIlGk+dEgU7dYYmTZoUr82PHl/BVpXTIh4fa4ahWmdYneNeJzHplR7fQm2WQ2CbTFd9rF69OrSMrwBpLAuW2pfzDpc6QWiPr8+TXa8MAMgPwRKIKeAVWSmaOHFioY/fVOoAW4VD29+G1eXJV9DyDrVNoZM2xx13XGjbbLNNvBZp8sNh864K67Or4et2DNWJOjtZAwDIB5P3AAl2tr2oypEeW50yAkY+/C0Y8px0xFPosU4w1TRUme3LCnh5Tn5l/CRYRT0HAGgqKpZAgq7FUsekqLPdCpV+aCSy40NlEddVCsNgUSdFDocVfYa43hIAikGwBBJUKdRZbp3tLuI6HV0rZGfZi+iYNYW2rW1fdYaLqhD7IYP+RvNI15VXXhm97W1vC+3222+P1yJtfh/OezisSV5vyXEUAPJBsARaUKjUme4irtPx1wgVWTmtM21Tu1+lFDlM33d6i6iYNsXChQujX/3qV6E9/vjj8VqkzY5fUsSJOdFz8J9pjqMAkA+CJdCGKlhqvqOUJz22TUZBpyhdfnicrqss6j1WqLT3lmGw2Ro9enS02WabhaZbjiAb+izZvqx9u6hqoQ+Xeh4MiQWA7BEsgTasg6Sz7n5ylbzo8VXBUmXNV9fQH1WCrbOr97fIKqG/kTzDYLP13ve+N3ryySdDO+SQQ+K1yEIZhsOKPt8WcvWZ12cfAJAdgiUwAgUPhTy1IqhyaZ0j9EedS5vYw1c0umWVmH6rMf7/MwwWdeGPlf0Oh+33Gkk/6oTrLQEgWwRLYATqlGi4pDokRQynUuBQ56iox68Tv/26DZUKk6p4qHqsCraW+wmD6uRaFZwTB9m7++67o3//938PbfHixfFaZEHHTNun7SRMr/QZ02dNnzl99roNh/4Ekp4Lx1AAyA7BEuiQhnSpQ2NhIG96/KIeuw7UKbXt18mtRaxDrE7twMBA6Njq/2md/q9ONvSD2WDzdcMNN0R/93d/F9p9990Xr0VW0hoOa8Fw/Pjx4bOnYGgnd7TcScjU55VbkABA9giWQIdUNbTbgPQ7vKsX6qgpzKhjVMTjV5k6n9YBVSdT72Ur2ra+Kqmf1iE1aYRK8R3ikUIuUDU2/FT6PV7pd/30pz+NDjzwwHhNFC1dujT8Xn1Gt9tuu/BzuGqmjp/2ORvu3wEAejcwOCRezoQ6aeqYaVhMr9czAWViZ8mLmk1UHSjR56mIx68ahUWFRGP3KBX9nZoqKskA2UpaoVIdW6uacGzMx6OPPhrdf//9YXnPPfcMs8MiW9rHLVTqc9PvCRR9Vt/znveE6vNw9PnWY/kwKf5YoH9T1DEcAOqKiiXQJVW7LNSpo5I3PXaRj181ftibhcKRqpKtpBUqhWGw+dtmm22iadOmhUaozEdaw2GNjnnJymUr7aqZOl7aSRwtMyQWANJFxRLokfZtdVaKOuutzpI6RzY8Fy9nx59+pRkqRYHWTgpkfAhGbMWKFdGf//znsKywMXbs2LCM7Ggf9xXCtI5V+r2dVC5bSZ6Q0/Gh3dB4AEB3qFgCPdLZeJ0wKSJUilVO8XLqOKYVKl/xileEUPnRj340+qd/+qew7pOf/GT08Y9/PCx/9rOfjU455ZSw/KUvfWntbJhf/epXw70T5cwzz4ze+c53huVjjz12bcf20EMPjd74xjeG5R/96EfhZIGC5nnnnReWV61aFV1wwQVh+amnnopmzZoVlh977LHo0ksvDcua4VTPT8vquF9//fVhWbOgzp07Nyzfeuut0W233RaWtU5/p2X9W/0fLV911VXhd2lZv1uPoWU9ph5by3ouek5a1nPUc9WynrvotZx11llh+cgjj4y+853vhGW9dm0D0TbRthFtK20z0TbUthRtW21j0TbXtpcvfvGL0cknnxyW9f6ecMIJYfkb3/hG9O53vzssf/vb346OPvrosPxv//Zv0Zvf/Oaw/JGPfCTaeeedQzvjjDPC837hhRei//mf/wnLTz/9dHThhReG5SeeeCL69a9/HZZV/briiivC8oIFC6JrrrkmLGsCIAUbLc+bNy+6+eabw7J+3nHHHWFZf6/ht1pWxW7hwoVh+fLLL48eeeSRsPyrX/0q3FtTy7/4xS+iZ555Jizreen5adnud/r6178+Ovvss8OyXtf3vve9sPz2t789+ta3vhWWtR20PeTEE08M20k+9KEPRV/4whfCsiYw+tSnPhWWtZ0/9rGPhWVt/w9/+MNh+ctf/vLaiuPXvva1EOTkm9/8ZnTMMceE5e9+97vRW9/61rD8/e9/P3rDG94QlnVc0vOeOHFiNHXq1LBO+/zpp58e1v/lL3+JLr744rCssH/ZZZeF5UWLFq3dlx988MG2+7L+v96X3XffPfzubixZsiReWkMnB7WNuOYSAPpHsAR6pECpcKcOSRFDqlRFU1OniCFdL2fXdvVr5cqV8VI6Hn744Xgpit7ylrfES/VT5kqsghzyodBrFLrTNHr06Hipc88++2y8tIYCr05A6VgKAOgPQ2GBPtnZ7jSHSnZDj6/OEZ+vlyhoW7DUsUcnAFT1USXOhs9pKKSqb51Icxgfw2CLoVCjiqR88IMfXDtEE9lTpVHHyLQ+R/r86DPeS5VRz0HHhBkzZqwzaRdDYgEgBQqWWRo6WKvnNDh0II/XAPU01GEaHAp38Z/yNxRsC338stB20DFH7XWve1289iX2PumYZP+ukzbUIY1/Q+/0uPb7OCaiKawfoKbPZz/0+dXn2n7fSE2fW33W9ByS/O/Sv+v3uQFA01GxBFKis/Ki/VxnxfNmj19U5bQsBgYG4qWRb3FglcNOq5l6X/upuPhKqn5PEfsJkDdVFu341E9foNNKpT5XehxVJUca4qrfmcUEQwDQRFxjCaREnSUNpVLnxAJLnvT4ClJ67CIevwys8yojhUrRe6Wm923OnDmhU6nteNxxx8X/Yl2+E9oL3yHW4yI/v/zlL6M99tgjtBtvvDFeizzoc2ifxV6Gr4o+e+1CpT5LCpI6ia1z5foc6zM90udf9H8t6NpjAAB6Q7AEUqIOijoy6pj4gJMXCyp67CIev2iqBFqn03dku2EdVHU01TlVU2fV3zev13Cp52eBX4+BfGnCnrvuuis0zbyKfNnnUZ+BbsNlq1Cpz6o+mzqBZCeEer1GUp9He376nNqoAgBAdwiWQMrUubEz4EXQYxf5+EXwlQZ1ONMYDqzfo5asZqoT2ku49DeI77UDjN7ptjG69YXaJptsEq9FXjQs1djtUzphn239VJDspSrZCX229XkXmxANANAdrrEEMlL0bK2qWqqj1ITPnV6rVTM6GQLbL+t06jE7rT4qiOr/6bmlEXyBqrHPqY5LCoadsM911p9pUaXSn6Dq9DkCANagYglkqMiz3uqI2Rn4OlOAt86nTmLl0QHVdlXrNFT6YbB203mgaeyzqc+CfWZHov+Tx2da9HnWMUT0HHVsAQB0jmAJZETDtFSZUgeqiA6KHl9NoaauHSRtW+sIqvNZ1iGmfhhsXp1krOumm26KPvWpT4X2wAMPxGuRp16Hw+ZJJ37shJyOnZ0GYAAAwRLInFXUiqpeqgNXZOU0K3pNfpKisoZKsclAFCqbUEUuozvuuCP69re/HdrChQvjtciTrz6WNbDp82lD1XWMses7AQAjI1gCGdM1jr6jkjc9vpoeu04dJLsWSvK4rrJXFiqFYbBoOvuc6lhU5nBp16brefpjDQCgPYIlkDGrUKlyWcRtQOzxNXlMXTpIVgUWXwUpI4bBlsO73/3uaOnSpaFNmzYtXou8+ZMrZR0OK7re0q6h1rGmrpcTAECaCJZATjRUs8gZWlXVK/Lx06JOnl1X6YetlRXDYMthww03jLbddtvQRo8eHa9F3vQZsBMsZa1YGh2z7TPL9ZYAMDKCJZAT61CpallE5dCCTVGPnwYNS/NV37IHZYbBlseSJUuiK664IrQnnngiXosiWLAs83BY0fEyeb0lAKA9giWQs6IrV3r8qoYc37Er83WVhmGw5XHZZZdFf/M3fxParbfeGq9FEaoyHFZ0rPa3ICFcAkB7BEsgZxpepaZqVhHX7eixFXL02FW6bqhK11UahsECL6fPgn1+qzC81I6ZUtRxGwCqgGAJFKTI24CUfQhakp5rla6rFIbBlsshhxwShk6r7b777vFaFMWCWlWORdpv7OSQPttVOn4CQF4IlkBBrJOrjlXeAVMdJD22zsSrg1RUwO2UH36m510FDIMtl1122WXtTJ/jx4+P16IoVRoOK3bMFB0vGRILAC9HsAQKYme/i5pMp+jH75SenwVfVS2rEtKsYqkgY9sawBr6TFRpOKzo+XK9JQC0R7AEClb0bUAeeuih8BzKWLVMXlepCmsV+GGwM2bMiJdQpB//+MfhNiNqvpqM4liw1LGnKuFSlVZ73lxvCQDrIlgCBdOZe7WiK5eTJk0q1Rl4dTSrdl2l8UP7rBOKYr344ovR888/H9rg4GC8FkXyw2GrEtB0LNKJQDtucr0lALyEYAmUhAJIkZO8KMSVZZKZ5DCzqlxXaayjyTDY8tCJk2OPPTa0bbbZJl6LIumz4auWVWHhUhgSCwAvIVgCJVH0bUDs8VU5Lbp6oI6adTSrdF2lMAy2nPRenH/++aHtscce8VoUzU5m6fPuPztlp2OSv95Sx00AaDqCJVAi6qAUOazKwtzEiRPDzyKog2bbQJ23qlxXaXwoV8USQHv+pFEVZof1/PWWOmZVZTgvAGSFYAmUiA2xstuA5B0y9fi6llGBSNUDC5p5UcfMh8oqXVcpeu62zQiV5XLVVVdFRx99dGjz5s2L16JofjhsEce8ftjxWj9FFUzCJYAmI1gCJWOdFA0HLbKTkvfjq0PpJ+up2nWV4isuZbleFWssWLAgmjVrVmiPPfZYvBZl4EclVG3GXh2rdALMjttM5gOgyQiWQEmps6KWd9XQ6DYkCnd5PL4ew1+j5KsAVeI7lH6IH4q3wQYbROPGjQtt/fXXj9eiDPRZ98GsavTc7USYjmX+GnEAaBKCJVBS1tEq8jYk6hxpNs2sK5f+9SlMVzGU+aHDVay21t3xxx8fPfXUU6Edeuih8VqUgY41NnRcn6EqVvx0zPLhksl8ADQRwRIoOXW4ihpWqQ6fhqdmOYGOn6ynajPAen4IH9VKoDv+GFfV6xR1rPYzxRZxQhAAikSwBEqu6NuAWKjM4vHV8bJQqdeYZYDNmg3hU+fSqs0oj3vuuSf6/ve/H9rDDz8cr0VZ6DNjJ2Ss8l9FfqZYHROqGpIBoBcES6ACrKNV1G1A7PHTvC+jOl0WxtSprNoMsJ69DuHeleU0Z86c6G//9m9Du/fee+O1KBOrWup44z9TVaJjmb9GnJliATQJwRKoAAteqoapw5X3NUj2+DoTr05SvxUFPX8bJlb1UCm+42jXigHojlX6pGr3tPSSx7QijtkAUASCJVAxCjFFdbqsktDP4+t3+IktqjoDrFGH0YI2obK8jjjiiOiaa64Jbd99943Xokx0HLBwqc9VlcOYD5c6PuhEWr8n5ACg7AiWQMWos6IwVkQnRZ0l3YZE10L22unzE1pYFbTKuHdlNWy77bZhNli1zTbbLF6LsvHXWVftnpZJOrb5yXyYKRZA3REsgYpRuFMnJY/bgLRjnaRuH1//xwJplWeA9XzArsPrqaunn346WrBgQWirVq2K16JsdHxTk6peZ+kpKDNTLICmIFgCFaSOlzornVTI1JlJe0iZHl9VU3Wa9Ps74UOlAliVZ4A16vja67fOI8rpggsuCJNfqd1www3xWpSNji02pDyLY1cRkjPFEi4B1BXBEqgoBTN1wkaqHGZ1ltw6f51UTpOhsuqT9RiGwQLp85+lKk/iY+xEnH6KwmVRo00AIEsES6DCFBrVWRnuFhf6N1md+dfvVcAc7vEVau2x9VzrEir9NtU2sE4jyunVr3519PnPfz60CRMmxGtRRvosWYVPnzF91qrOjn12nNAIB8IlgLohWAIVpk6KzoSrE6ZOynDhMYtOjH98BchkB1CPaddJ6d9q4p+68NuTamX5TZ06Nfr6178e2s477xyvRVnZZ0rHlLoEMMIlgLojWAI1oM6XAlyrWRTnz58ffip0Dhc8+2HVO//79XzsukMLoHXiA7NVVwCkQ58pC2BZHbeKQLgEUGcES6AGrLOi6y6H64Rl1YHR46saqSGhClx6DnZdp/7Oqpp1YaFS6jAJURPMmjUr2muvvUK76aab4rUoKx037LNlJ87qwo7XRq+NcAmgDgiWQE2os6IOWHIyH60zd999d6Zn/y1Q6jmYuoVK8dvXJjFCuT3xxBPRvHnzQtOtR1B+/rhRt+BlJ+PEgnOdKrMAmolgCdSIVQd1pt8HSrN06dJcZ1nUWfm6hUp1AG3bEiqrY8stt4z23nvv0MaNGxevRZnpeGafMX3m6ha87Hgten1+ojMAqCKCJVAz1hGz24D4gDl27Njo0ksvjf+ULnWIfKVSWoXbqvPBnGGw1XHkkUdGt9xyS2j7779/vBZl5z9jdRwuquM14RJAXRAsgQqys/dqrcKb1mlSCN0GxP/9qlWrQtXSrn9Mix4jOfxVHaa6VfRsm4temyoOALKjz5iNevCfvzrRscQmOtOxVMfnVsd1ACg7giVQUZoBVmFOlcmBgYHQdtppp/Bn65ioupbsoKhqecUVV8R/6p9+vx7TWKjUz7p1kny1kluMVMvcuXOjz3zmM6E9+OCD8VpUga9a5jmUP096jT5c6thel+MmgOYgWAIVpLP46oho8ocDDzwwXhtFixYtCp2R6667LlwL2GomRVUt9e9a/V23rANkLFR67aqqVWTbTBWUul07WneatOeb3/xmaAsWLIjXogr8562OFUtDuARQdQRLoMIUMOfMmbO2M6JqpLzwwgvhZzujRo3q+3qlZMdHgTIZKvX8FH7VKaz69VH++VOtBPJlnzkdb+p4raUhXAKoMoIlUAOtqpfDUfBUZ6XXs//6vxr+ah0eG/rajip96ixVudrgK7zJAI3yO/bYY6PFixeHdtBBB8VrURV+hEAaoy3KTCGacAmgigiWQE2oOqjbeySrl8PpZRIfhUN/TeVIoVL0b+zWI1XsIKkja8/bti+qZaONNoq233770MaMGROvRVXo+ObDVp2HxOq1Ei4BVBHBEqgZq15+7nOfi9e0120HTf9WHRyjjs9IodJYqFQorVrFgWGw1afZkHVyQ+3JJ5+M16JK/GevzsNhReGy1bDYOgdqANVHsARqKNkpGU6nHbRkqFSg1GN0S8+pSkNJfbVSz1vbFtWj+7cefvjhoelelqgeffb8JD5NCFnJcKlRJoRLAGVFsARqzKqXwwXMTjpo+nsfKlX16SUcWuDV7/PXaJaZv71BL0EaQHr8Z7DuVUvTKlw25bUDqBaCJVBzFuZUYdxxxx3jtesa7t5wqtglQ6WfSKMXek5qZQ+Weu0WuqlWVtvBBx8c/fCHPwxt8uTJ8VpUjY49Tataih3DRcdNHZsIlwDKhmAJNISC0bXXXtuyeqlhgq06aOq8+Al+0giVooBmv6uXCYTyQrWyPnbdddfo5JNPDm277baL16KK/HXdZT5+pE3HcB8udSwnXAIoE4Il0CDtqpea2CRZtVSHLYtQ6Sm4+qpgmVCtBMpJn0U7FilgNaVqKToW6fIGQ7gEUCYES6CBWlUvVbU0CpQKVuKri2mzTpJ+tz3ecDr5N2nxnTWqldV37rnnRhtuuGFo11xzTbwWVdXUqqXomEy4BFBGBEugoZLVS1Ut1TnR9ZQ+VOrvswiVRo+hioMPs+0Mdy1omvQ87PpPqpX1sHr16mjVqlWhvfjii/FaVJU+k/psil1z2CR6/QqXdmwiXAIoA4Il0HC+eqlmw8qs45JlqDR6LAVY6yi2o+eWRweSamX9TJw4MTrmmGNC23rrreO1qDL/2WxiqNJxU6NJfLhsWvUWQLkQLAEE/jolC5V50eMpVOo5jHQbkqw7kL5aqY6addpQbarE//znPw9tzz33jNeiyuy4IU2sWoq2gQ+X2gZVuZUTgPohWAINZ2HOgqUqlHmGSk+dIz1+qzBnHSX99CE4bVQrgepoetVSkuFSx0idSCFcAsgbwRJoMJ3d9veo1Nl/dVCKoo6RhsSqQzTckK6sOpD6vdYZU7US9aH92obC3nHHHfFaVJ2OGU2vWoqFSztuWbhsatgGUAyCJdBQ6nD48KZAp1YGqkhaM/7se/Lv0uLDJNXKepk/f3504YUXhvbnP/85Xos6oGq5hsKltoUPl1omXALIC8ESaBg7k22dDzvTPdLEOXmyyqm/DYkPlpJ2Z8n/vrIEbKRn1KhRa283st56fPXViY10EB0nmh6kFC79yBMd6/3IFADICt+uQINYqLRqn4XKPGZ+7Zaem0KlqqrJUClpVy19tbJMIRvpOOGEE6JnnnkmtOnTp8drURf+GNbU4bCeXSuv46joWMmkPgCyRrAEGiLZsUh2PMpIz1HBV89RQxmT0rqvpT+bT7USqB4dI3zVkttuvHTi0A+N1bGO4A0gKwRLoAE0NMyHJ3U0/FCpoqijo06OAq+enzqD1rTeKpJ6/r6iaC699NK+z8D7yqeCLNXKerrvvvuiH/7wh6EtWbIkXos60edXTfznuskULk866aR1wqWOp00fLgwgI4MZGzqYDephhjpr8RoAeRrqaIXPoLWhQBn/TXnoOQ11gNZ5np22fo8tfvuUcdsgHeeccw7vcwPovbX3WccUvMT6Y9b0ZwBIExVLoKZs2JOdtbdhUXZGv0z0nPTcWlUlhzN27NhQteyVztrb9lGlsozbBkDn9Bm2UQdWncMamtTHX/6g4y3XXQJIE8ESqCGFJXUYLDSps6UORZmDkzo7NpvhjjvuGK8d3qpVq6KlS5f21HlUZ8oHWa6trLc3velNYd9S22effeK1qCN/+xENqSc4vcROMFq4TJ6ABIB+ECyBmlHI8tdT6uy9OhJVofB77bXXrg19uk3EcFS17GUyCj+5R5W2D3ozfvz4sG+pbb755vFa1JFCExP5tGfh0o6xto2o7gLoF8ESqAk78+yrcFquYiXOqpeqsioQDEdVS732bsKlnxjIwgbqTbcZWbx4cWjPPvtsvBZ15Ye267NORW5ddoz14VLLDI0F0A+CJVADCkp+6KudkfZDwqpIr6OT6qXWd3O23VcwGALbDD/72c/CEGu1OXPmxGtRZ/6zTdWyNTuBp2Ot2AlKqpcAekGwBCrMOgG+06QQVvbrKbvRSfXyhRdeCNuik6pEcltZhwpAveiz7StyhMvWtJ2SQ2O1TLgE0C2CJVBRClF1rFK2o9c3UvVypI6QtpUNmdXvq+u2wsvttdde0Wc+85nQJkyYEK9F3ekejvqsiz7/nZx8aiI7Huo7xLaXjrX+OwYARkKwBCpIAcpP0KPqZJ2qlO1Y56dd9XKkjqMPngyBbZb99tsvOuOMM0Lbeeed47WoOx0zmMinc/oOUbj0t2zRNqN6CaATBEugQvQl32qCHnUEmkSdRV+99Np1gLTeQif3rASaQ591+7zrGEpIGp6FcTu+2tBYJvYBMBKCJVAR6gwlh76qctfU4Zy+eunve9mqaqk/+xBKtbJ5Lr744mjvvfcObe7cufFaNIX/zPtZodGeHV91rBU7sUkwB9AOwRIouXZVSv+F32TaBsnq5cyZM+Oll7afaVp1F2ssW7Ysuu2220JbsWJFvBZNoeMEQ2K7p+2mY6YdX7XttKxjqpYBwCNYAiWms+pNmqCnV9ouvnqp7WWdnuQssAyBbaYtttgimjJlSmgbb7xxvBZNoiHwPiARLjtjx1d992hZdIylegkgaf2hg+xLp/kzMHv27HAA2meffaKjjz46XgtgOOr0vP3tb1/nS1uB6Oabb177xY6X23zzzaN3vOMd0cDAQDRr1qzo1ltvXTsLrLYfQ2Cba/fdd48++tGPhrbDDjvEa9E0On7quKBj7C233BKOFZxs6oy2nfpxOkmjft2TTz4Zfs6fPz/08XT8BdBsVCyBkml1LaUCEUM4O6PtpbPrus2AP29GqARgx1PD9ZbdseOrP7ZqG1K9BCAES6Ak1LlRoPRf2Bq6peGdNvU7OueHufkhXGimP/zhD9HnP//50B588MF4LZrIh0uGxPbGLj2w7yttRy37k6IAmodgCRRMX8g62+snQ1DHR2GIKltv/LZUZ4ehbrj99tuj008/PbQFCxbEa9FUXG/ZP6te+hN39n2m7WnHYADNQbAECpQc9irq7OhMMGGoN9qmtj21DdXxAYAkDZe346yGczKUszfahgqXFtSF4bFAMw0MDomXM6GDig42OjtI9QVYw87q+jO69uWM3ilQarsabskC8/TTT4dbjsg222wTjRkzJiyj2XQM1sk9sSGynNTrnban+n02aZqwXYHmoGIJ5Mi+dNWRsVCpL10FSkJlf7Q9ua4S7egWIzvttFNohEoYCz1ixxA7NqN7tj3V7Pir7Un1EmgGgiWQEwuUfrgQw17T4zuE2q5sU3iPPPJIdM0114Sm2yQAJnm9pR/1gN5omyaHx2pZ34EETKC+CJZAxqyj4r9gFXoUKLn+Lx3avlxXieH85je/iWbMmBGa7l8IeP56S8JlOlSxtNlj/ba1gMnssUD9ECyBjOgLVFU0/wWqL1ob9mrDhNCfZKhkSDGAbtkQTjsu65jih9ajd/a9lxweq+3L0GOgXgiWQMr0JWnDXv0EBjpLy7DXdPlQaZ0XoJVp06ZF3//+90ObPHlyvBZ4iR1DLPwwU2y6ksNj9V1ps8cSMIF6IFgCKfGB0g971Zcpw17Tp46ID5U2AQfQym677RZ9+MMfDm277baL1wLrSoZLHcsJl+nRdrXhsfpuFB8wta0JmEB1ESyBPrULlKpM6svTD/9BOtQJ8dVgbWMqwQDSYOHSEC7Tp22s43YyYGpbEzCB6iJYAj0aKVD6s95IT/LaJ21nQiVGct5550Xjxo0L7dprr43XAq0lwyXDYrPhA6Ydx5MBE0B1ECyBLrULlNYRIVBmR6FSnQ1DqESnXnjhhejpp58ObfXq1fFaoD0dW2yIvY77Cpc2/B7psu/PVgFT37UETKAaCJZAh0YKlP4LEekjVKIfEyZMiI4++ujQttpqq3gtMDwN07Tjvb4D/LXdSJ8/QUvABKqHYAl0gEBZrGSo5JpKdOvwww+PLrrootCmTJkSrwVGpslmkuGSgJMtHd/1/eqP9QRMoPwIlkAbVqEcGBh4WaBMXhOC7Og98KFS74VN9gAAeUiGS665zIeO9RYw9d0rBEygvAiWQIIFylYVSguUBJt8qDLg3wNtf27bgl6o6n3ssceGduedd8Zrgc4lw6WWCTb5GClgMkQZKAeCJRDTGWh9QbUKlPozgTJfqlL6W4qoU8H2R6/UCb3gggtCe/TRR+O1QHcULhVujL4b/CzVyI6+i33A9ENk9V2h7wx9f/vvDQD5Ilii0aw6qeGu6hzoz0ZfWlahpEqWH70H6iDY2Wd1JtSRYNgx+rH++utHo0ePDm299fjqQ+8UbvS9YOykJPLhA2byhKO+P/RdrveDajKQP75d0UgWKIerTlIhy591Cnyo9GemgV69733vi5599tnQpk+fHq8FeqNjk74n9FN07NL3iX4iP/4EsP8u1/ugP+s9YZgskB+CJRqlk+Guqk5aZwH5sY6ZdQDUYdD7QagEUEb6ntAJSB8uNdqCcJk/vQf67raA6d8ThskC+SFYovb0xdJuuKu+fBjuWjyrHhuFSXXYgLTcf//94bOutnTp0ngt0B8Llza6xcIlwzCL4QNmcrSL3huGyQLZIliitixQDledVGO4a3GsE+bfH7t2BkjTddddF33wgx8M7e67747XAv2zMGPHMR3XtKwQg+LYd4lVMY29P+obMEwWSBfBErXiw+RwgZLhrsXTl7neI/+lrvdHZ5kBoEqS4VLs0guCS7HsvbGAad/96i/4YbLqO2gdgN4NDA6JlzOhD6o+yDpzRIcRWdAXwcyZM8OXd6svcPtSoTJZHnZcMHqP/LVKQNqWLFmy9v6VU6dOjbbYYouwDKRN30n+Wksd1/T9o+8hFE/vi/oK1m9I4v0CekewRCV1Eia1z5100kmElRLR+5YceqTjA1/gAOrEvqM4gVZuw/Ul9D7pGs0ZM2ZwYhroEMESlaID/+zZs9f5sjaEyXJrVaVMTq4AZGXlypXR8uXLw/KWW24Z7mcJZE3fWX7SOPue4mRa+VjI1PBYe78MIRPoDMESpdfqzK+xL2kd7Ako5aT3L1ml1HvFBD3IkzqLNpmK9j2OF8hLq+8w7X/qE3EStHz0ftl71ur2JBYydRKb4wiwLibvQSnpoK6TErpFSHISHtGf9aVsE/FwcC8few+Tk1fofSNUAmgKBRF9T/nvMR0T7bYkOlaiPCw4Wh9DP32VUu9XctIf/x0HNBkVS5SGP0PY6ovWqpMMISo/+9x7nKFHkW666abo/PPPD8sf+chHole+8pVhGciTvtuSIzj4bqsGvXd639RPaRUk7X1kBBWajGCJwliQ1AG63dk+vnCrxQ83NHoP9dnnixYA1tCxMlmt5PuuOjoJmfrOs5CpPwNNQLBErixMtqtKin25MglPdei95Cw8AHTOvg+Tozt07ORkXHXY+zjSSXK9n1yXibojWCJT3Rxw9ZMQUi16f/UZ14kCT5953kuUySWXXLJ2nzz77LOj/fffPywDRWsXMO0EK0GkOvReqq+j2euT34vG+jyqZtoyUBcES6TOH1R1kG1FB1PtE1yLUE2thnGJ3kt9zvX+AmWifZZZYVFm7U7U2UlXfWeiOuz7kWommoRgib7p4NnJgdO+FKlkVZO9z61OGOj9ZegWyuyXv/xl9MUvfjEsax8+4IADwjJQNjq+Ji8tEPse5Tu0mvS+6j0dqZqpZpcC8Z2KqiFYois6MKrpwDhckBT7EqQqWW16v1sN0xLr5Oi9BgCkR8fedhVMHXuZh6Da7Lt1uL6U3l819aHoS6EKCJYYlh34pFWlyrMvO+GMavXRqQGA4tn3cLuTewyhrD69xyNVM40PmrYMlAXBEmvpwKbWSTVS7ICmn4SMehiuA6P3V59jThqgiv74xz9GF154YVg++eSTw43NgSqx43Ork7z2fUzIrAe9vxY0bbkdvffWeP9RNIJlg9mXlLQKEp4OWKL3keEY9WL7Qbt9QO+9wqTee6Cq1Bln8h7UhfZnHbdbBQ4dswmZ9dJN0BTbB6hqIm8EywbQQUh0IJo/f3742clByYIEQbJ+7AtquDCp959KNOqCYIk6shOD7b7XLVQQMuvF9+u6rWoSNrOn90KfyyZ+7giWNaIDi5oOMtLuiybJDjba+QmR9WSdDyFMoolWrFgRPfbYY2F5/Pjx0dixY8MyUBd2nG/33e+/520Z9eH7gN32/9TYL9JlJzNt+1rfqu7bl2BZQf7gIZ0eQIx2bKqR9TZSB8PYvkCYBID66OQ7wDq5BIr60n6g97+Tqqan/cGa7R/W0Dk/UsZoG+qzVtdqJsGyxHQQULMDQjcHBbGdVz8nTpy49s+oH+0bnQRJ0X5AmETTPProo9F9990XlqdMmRJtttlmYRmou06/H/R9YP0ETjrXk/YF0X6gS6O67Vtan8H2EbF9Bq21CpfGPnN1qmYSLAtiH279tMqjfcCtdcJ/yLXszyyhfmzf6OZkg/YFff7oKKDJuMYSWPMdou+MTipYvn9BiKg37Qti+0MvFU77act+n/Hrm2i4cOlpG+nzVeVqJsEyA/owWtMZoeQ6tW7Zh9J2NEJCvdl+0ku1WvsJQRJYF8ESeDn/XaPvmE6+Zywg6DOk7xnrn9h61IvtI7af6Gen/RHP9g+/rzQpfHYaLo1tj6pVMwmWHdIHKfnTQqN9wHr5oHn2gfI7EOGgfvw+pIO0LfvWKdtX9JN9BWjvnnvuia666qqwfNRRR0Xbb799WAbwEv891G/VSs0uwxG+n+olua8k1/XK7z/iw2ern1XSbbj09Hr1GSp7NbMRwdLv4LasnxYMxa+3n7acBu0QvokdcP06VFOr/SZZrZZeTz7YPqKDCdfLAgDy4r+/LGz677VuWF/HvtPU9J1mkn+ParJ9w+8naYZPz+8z/qdo2fav5Hr/5zz1Ey6NPf8yVjNzC5aWslvxAa+V4Xa+dn+X5k7bKb+j2ptsZ1pQfn5/Se6T/u9sOat9LLkfsQ8BAMrGvv8UGOykadrfifZdKP670diffTiV5L9DOWl/UX/L9pus9qPhJPexpJH2pXZ/n9wnPX1mFDDToudgOavokJlbsAQAAAAAZEMhU62oauZ68U8AAAAAQEWp2qvKr4bbHnbYYdGkSZPCcq+XYnUr82Bp14MBAAAAALKn/KU5bvKsXGY+FBYAAAAAsIaqiGleZ2ksTBZ1pwCCJQAAAADkIM1QaUFSTj311PCzSARLAAAAAMhYGqGy6KrkcAiWAAAAAJChXkNl2aqSwyFYAgAAAEBGug2VZa5KDodgCQAAAAAZ6CRUVqkqORyCJQAAAACkbLhQWdWq5HAIlgAAAACQomSorEtVcjgESwAAAABIiYXKOlYlh0OwBAAAAIAU/OlPf4pmzpxZ26rkcAiWAAAAAIC+rBf/BAAAAACgJwRLAAAAAEBfCJYAAAAAgL4QLAEAAAAAfSFYAgAAAAD6QrAEAAAAAPSFYAkAAAAA6AvBEgAAAADQF4IlAAAAAKAvBEsAAAAAQF8IlgAAAACAvhAsAQAAAAB9IVgCAAAAAPpCsAQAAAAA9IVgCQAAAADoC8ESAAAAANAXgiUAAAAAoA9R9P8BtLRXC0P5h/kAAAAASUVORK5CYII=;" vertex="1" parent="1">
          <mxGeometry x="20" y="60" width="390" height="195.42" as="geometry" />
        </mxCell>
        <mxCell id="T2qp08pysL1hU3UDl65L-3" value="\(\operatorname{PDF}\)" style="text;html=1;strokeColor=none;fillColor=none;align=center;verticalAlign=middle;whiteSpace=wrap;rounded=0;" parent="1" vertex="1">
          <mxGeometry x="-25" y="63" width="60" height="30" as="geometry" />
        </mxCell>
        <mxCell id="T2qp08pysL1hU3UDl65L-2" value="\(X\)" style="text;html=1;strokeColor=none;fillColor=none;align=center;verticalAlign=middle;whiteSpace=wrap;rounded=0;" parent="1" vertex="1">
          <mxGeometry x="365" y="244" width="60" height="30" as="geometry" />
        </mxCell>
        <mxCell id="T2qp08pysL1hU3UDl65L-6" value="\(\mu\)" style="text;html=1;strokeColor=none;fillColor=none;align=center;verticalAlign=middle;whiteSpace=wrap;rounded=0;" parent="1" vertex="1">
          <mxGeometry x="179" y="240" width="60" height="30" as="geometry" />
        </mxCell>
        <mxCell id="T2qp08pysL1hU3UDl65L-7" value="\(\sigma\)" style="text;html=1;strokeColor=none;fillColor=none;align=center;verticalAlign=middle;whiteSpace=wrap;rounded=0;" parent="1" vertex="1">
          <mxGeometry x="198" y="176" width="60" height="30" as="geometry" />
        </mxCell>
        <mxCell id="9EUehRZK9THw3qdOtHzu-3" value="\(\mu\)" style="text;html=1;strokeColor=none;fillColor=none;align=center;verticalAlign=middle;whiteSpace=wrap;rounded=0;" vertex="1" parent="1">
          <mxGeometry x="179" y="463" width="60" height="30" as="geometry" />
        </mxCell>
        <mxCell id="9EUehRZK9THw3qdOtHzu-4" value="\(\mu\)" style="text;html=1;strokeColor=none;fillColor=none;align=center;verticalAlign=middle;whiteSpace=wrap;rounded=0;" vertex="1" parent="1">
          <mxGeometry x="179" y="643" width="60" height="30" as="geometry" />
        </mxCell>
        <mxCell id="9EUehRZK9THw3qdOtHzu-5" value="\(\mu\)" style="text;html=1;strokeColor=none;fillColor=none;align=center;verticalAlign=middle;whiteSpace=wrap;rounded=0;" vertex="1" parent="1">
          <mxGeometry x="569" y="463" width="60" height="30" as="geometry" />
        </mxCell>
        <mxCell id="9EUehRZK9THw3qdOtHzu-6" value="\(\mu\)" style="text;html=1;strokeColor=none;fillColor=none;align=center;verticalAlign=middle;whiteSpace=wrap;rounded=0;" vertex="1" parent="1">
          <mxGeometry x="569" y="643" width="60" height="30" as="geometry" />
        </mxCell>
        <mxCell id="9EUehRZK9THw3qdOtHzu-7" value="\(\operatorname{PDF}\)" style="text;html=1;strokeColor=none;fillColor=none;align=center;verticalAlign=middle;whiteSpace=wrap;rounded=0;" vertex="1" parent="1">
          <mxGeometry x="-10" y="303" width="60" height="30" as="geometry" />
        </mxCell>
        <mxCell id="9EUehRZK9THw3qdOtHzu-8" value="\(X\)" style="text;html=1;strokeColor=none;fillColor=none;align=center;verticalAlign=middle;whiteSpace=wrap;rounded=0;" vertex="1" parent="1">
          <mxGeometry x="340" y="464" width="60" height="30" as="geometry" />
        </mxCell>
        <mxCell id="9EUehRZK9THw3qdOtHzu-9" value="\(\bar \mu_3\)" style="text;html=1;strokeColor=none;fillColor=none;align=center;verticalAlign=middle;whiteSpace=wrap;rounded=0;fontSize=13;" vertex="1" parent="1">
          <mxGeometry y="629" width="60" height="30" as="geometry" />
        </mxCell>
        <mxCell id="9EUehRZK9THw3qdOtHzu-10" value="\(X\)" style="text;html=1;strokeColor=none;fillColor=none;align=center;verticalAlign=middle;whiteSpace=wrap;rounded=0;" vertex="1" parent="1">
          <mxGeometry x="340" y="644" width="60" height="30" as="geometry" />
        </mxCell>
        <mxCell id="9EUehRZK9THw3qdOtHzu-11" value="\(\operatorname{PDF}\)" style="text;html=1;strokeColor=none;fillColor=none;align=center;verticalAlign=middle;whiteSpace=wrap;rounded=0;" vertex="1" parent="1">
          <mxGeometry x="420" y="303" width="60" height="30" as="geometry" />
        </mxCell>
        <mxCell id="9EUehRZK9THw3qdOtHzu-12" value="\(X\)" style="text;html=1;strokeColor=none;fillColor=none;align=center;verticalAlign=middle;whiteSpace=wrap;rounded=0;" vertex="1" parent="1">
          <mxGeometry x="770" y="464" width="60" height="30" as="geometry" />
        </mxCell>
        <mxCell id="9EUehRZK9THw3qdOtHzu-14" value="\(X\)" style="text;html=1;strokeColor=none;fillColor=none;align=center;verticalAlign=middle;whiteSpace=wrap;rounded=0;" vertex="1" parent="1">
          <mxGeometry x="770" y="644" width="60" height="30" as="geometry" />
        </mxCell>
        <mxCell id="9EUehRZK9THw3qdOtHzu-16" value="\(\bar \mu_3\)" style="text;html=1;strokeColor=none;fillColor=none;align=center;verticalAlign=middle;whiteSpace=wrap;rounded=0;fontSize=13;" vertex="1" parent="1">
          <mxGeometry x="430" y="599" width="60" height="30" as="geometry" />
        </mxCell>
        <mxCell id="9EUehRZK9THw3qdOtHzu-17" value="\(( X - \mu&amp;nbsp; )^3\)" style="text;html=1;strokeColor=none;fillColor=none;align=center;verticalAlign=middle;whiteSpace=wrap;rounded=0;" vertex="1" parent="1">
          <mxGeometry x="-20" y="480" width="60" height="30" as="geometry" />
        </mxCell>
        <mxCell id="9EUehRZK9THw3qdOtHzu-18" value="\(( X - \mu&amp;nbsp; )^3\)" style="text;html=1;strokeColor=none;fillColor=none;align=center;verticalAlign=middle;whiteSpace=wrap;rounded=0;" vertex="1" parent="1">
          <mxGeometry x="410" y="480" width="60" height="30" as="geometry" />
        </mxCell>
        <mxCell id="9EUehRZK9THw3qdOtHzu-19" value="\(\operatorname{KURT[X]}\)" style="text;html=1;strokeColor=none;fillColor=none;align=center;verticalAlign=middle;whiteSpace=wrap;rounded=0;" vertex="1" parent="1">
          <mxGeometry x="70" y="142.70999999999998" width="60" height="30" as="geometry" />
        </mxCell>
      </root>
    </mxGraphModel>
  </diagram>
</mxfile>
